<?xml version="1.0" encoding="UTF-8"?> <svg xmlns="http://www.w3.org/2000/svg" xmlns:xlink="http://www.w3.org/1999/xlink" width="35.082" height="46.045" viewBox="0 0 35.082 46.045"><defs><clipPath id="clip-path"><rect id="Rectangle_83" data-name="Rectangle 83" width="35.082" height="46.045" fill="#64a6ff"></rect></clipPath></defs><g id="Groupe_205" data-name="Groupe 205" transform="translate(0 10)"><g id="Groupe_131" data-name="Groupe 131" transform="translate(0 -10)" clip-path="url(#clip-path)"><path id="Tracé_77" data-name="Tracé 77" d="M17.093,46.045c-.873-.269-1.756-.51-2.617-.811a23.124,23.124,0,0,1-6.932-3.761,23.826,23.826,0,0,1-2.58-2.32A17.171,17.171,0,0,1,.377,30.422a21.5,21.5,0,0,1-.355-3.609C-.014,21.1.006,15.4.006,9.686c0-.671.149-.852.779-1.042,1.469-.443,2.951-.853,4.4-1.359a35.58,35.58,0,0,0,6.963-3.357A28.262,28.262,0,0,0,16.22.831c.315-.284.642-.554.963-.831H17.9c.427.382.835.79,1.286,1.142,1.1.859,2.186,1.747,3.344,2.524a33.944,33.944,0,0,0,5.973,3.092,48.959,48.959,0,0,0,5.834,1.91c.623.171.739.351.74,1.018,0,5.874.011,11.747-.006,17.621a16.061,16.061,0,0,1-1.214,6.06,18.747,18.747,0,0,1-3.328,5.322,22.4,22.4,0,0,1-5.764,4.648,23.55,23.55,0,0,1-6.726,2.639c-.02,0-.033.044-.049.068ZM1.355,9.919v.59c0,5.246-.017,10.491.012,15.737a25.67,25.67,0,0,0,.275,3.674A14.316,14.316,0,0,0,3.53,34.956,18.871,18.871,0,0,0,7.652,39.8a21.7,21.7,0,0,0,3.891,2.649,21.01,21.01,0,0,0,4.719,1.91,3.743,3.743,0,0,0,1.568.247,21.375,21.375,0,0,0,6.236-2.448A21.4,21.4,0,0,0,29.6,37.643a17.107,17.107,0,0,0,2.97-4.77,14.764,14.764,0,0,0,1.147-5.535c.029-5.62.011-11.241.011-16.861V9.912a44.261,44.261,0,0,1-8.6-3.183,31.778,31.778,0,0,1-7.591-5.218c-4.648,4.322-10.174,6.8-16.18,8.407" transform="translate(0)" fill="#64a6ff"></path><path id="Tracé_78" data-name="Tracé 78" d="M34.06,60.34q0-3.732,0-7.464c0-.646.141-.842.758-1.01a36.787,36.787,0,0,0,5.387-2.008,35.289,35.289,0,0,0,5.762-3.217c.7-.488,1.373-1.009,2.053-1.523a.743.743,0,0,1,1.041.007,34.525,34.525,0,0,0,7.417,4.559,36.721,36.721,0,0,0,5.787,2.185.87.87,0,0,1,.749.982c0,4.931.03,9.862-.01,14.793a13.506,13.506,0,0,1-1.528,6.46,24,24,0,0,1-2.12,3.181A16.679,16.679,0,0,1,55.148,81a20.676,20.676,0,0,1-6.4,2.721,3.12,3.12,0,0,1-1.449-.268,19.1,19.1,0,0,1-6.64-3.347,27.975,27.975,0,0,1-3.309-3.286A12.937,12.937,0,0,1,34.685,71.8a11.383,11.383,0,0,1-.537-3.255q.008-4.105,0-8.21h-.09m1.349-7.168v.483c0,4.5-.015,8.993.012,13.49a19.775,19.775,0,0,0,.265,2.911,13.419,13.419,0,0,0,3.683,7.083A18.89,18.89,0,0,0,41.5,79.016a19.11,19.11,0,0,0,6.415,3.212,1.592,1.592,0,0,0,.8.092,18.449,18.449,0,0,0,5.14-2.126,17.094,17.094,0,0,0,4.705-4.053,16.291,16.291,0,0,0,2.122-3.586,14.066,14.066,0,0,0,.98-5.621c.016-4.422.005-8.843.005-13.265v-.491c-1.252-.455-2.49-.831-3.665-1.349C56.3,51.078,54.6,50.3,52.971,49.393c-1.443-.806-2.773-1.812-4.166-2.71a.811.811,0,0,0-.529-.01c-.1.02-.174.156-.273.219-1.434.914-2.83,1.9-4.318,2.716-1.567.86-3.2,1.6-4.845,2.311-1.108.483-2.273.834-3.433,1.252" transform="translate(-30.997 -40.869)" fill="#64a6ff"></path><path id="Tracé_79" data-name="Tracé 79" d="M94.925,137.441c0-.837.006-1.627,0-2.418a6.4,6.4,0,0,1,10.154-5.221,5.81,5.81,0,0,1,2.51,4.275c.1,1.093.018,2.2.018,3.384a6.973,6.973,0,0,1,1.392.015,1.911,1.911,0,0,1,1.568,2.09c.018,3.237,0,6.473.009,9.71a2.039,2.039,0,0,1-2.177,2.274q-7.08.038-14.16,0a2.021,2.021,0,0,1-2.192-2.256c0-3.267-.005-6.533.007-9.8A1.856,1.856,0,0,1,93,137.718a2.834,2.834,0,0,1,.911-.267,7.55,7.55,0,0,1,1.014-.01m6.416,1.349H94.2c-.532,0-.8.248-.8.768q0,4.9,0,9.794c0,.585.28.858.873.858q7.031,0,14.062,0a.776.776,0,0,0,.89-.886q0-4.875,0-9.749a.691.691,0,0,0-.783-.785h-7.1M97.8,137.42c0-.272-.007-.509,0-.746a15.714,15.714,0,0,1,.116-2.45,3.222,3.222,0,0,1,2.376-2.595,3.36,3.36,0,0,1,3.408.8,3.088,3.088,0,0,1,1.03,2.4c-.031.861-.007,1.724-.007,2.583h1.663a19.006,19.006,0,0,0-.178-3.489,4.918,4.918,0,0,0-5.76-3.924,4.828,4.828,0,0,0-3.909,3.379c-.464,1.312-.206,2.674-.274,4.037Zm5.576.005c0-.967,0-1.88,0-2.793a.922.922,0,0,0-.05-.257,2.106,2.106,0,0,0-2.08-1.522,2.01,2.01,0,0,0-1.952,1.554,30.319,30.319,0,0,0-.194,3.033h3.97c.087,0,.173-.008.308-.015" transform="translate(-83.768 -117.027)" fill="#64a6ff"></path><path id="Tracé_80" data-name="Tracé 80" d="M165.836,267.35a2.708,2.708,0,0,1-1.946-1.97,2.819,2.819,0,1,1,3.644,1.909.391.391,0,0,0-.306.444c.009.434,0,.869,0,1.3a.543.543,0,0,1-.551.615c-.345.017-.668-.056-.707-.49-.052-.59-.09-1.181-.137-1.811m.759-1.29a1.408,1.408,0,0,0,1.445-1.41,1.462,1.462,0,0,0-1.43-1.483,1.587,1.587,0,0,0-1.474,1.446c0,.706.779,1.564,1.459,1.446" transform="translate(-149.059 -238.272)" fill="#64a6ff"></path></g></g></svg> 