<?xml version="1.0" encoding="UTF-8"?> <svg xmlns="http://www.w3.org/2000/svg" width="253.46" height="87.47" viewBox="0 0 253.46 87.47"><g id="elephants_white" transform="translate(-1216.541 -3679.53)"><path id="Tracé_34" data-name="Tracé 34" d="M652.761,44.464a3.658,3.658,0,0,0-3.658,3.658V58.985a7.3,7.3,0,0,1-7.288,7.316h-.028a7.3,7.3,0,0,1-7.316-7.288V43.951A43.9,43.9,0,0,0,564.986,8.287,43.9,43.9,0,0,0,495.5,43.951V72.9a14.632,14.632,0,0,0,29.263,0v-5.03a14.631,14.631,0,1,1,29.263,0V72.9a14.632,14.632,0,0,0,29.263,0V58.638a14.645,14.645,0,0,1,29.291,0v.083a21.92,21.92,0,0,0,43.839,0V48.094a3.686,3.686,0,0,0-3.658-3.63M612.579,32.59a3.672,3.672,0,0,1-.028-7.343h.028a3.658,3.658,0,0,1,3.672,3.644v.028A3.671,3.671,0,0,1,612.579,32.59Z" transform="translate(813.582 3679.473)" fill="#fff"></path><path id="Tracé_35" data-name="Tracé 35" d="M574.13,22.261a1.829,1.829,0,0,0-1.829,1.829v5.431a3.65,3.65,0,0,1-3.644,3.658h-.014a3.65,3.65,0,0,1-3.658-3.644V22A21.948,21.948,0,0,0,530.243,4.172,21.948,21.948,0,0,0,495.5,22V36.476a7.316,7.316,0,1,0,14.631,0V33.962a7.316,7.316,0,1,1,14.631,0v2.515a7.316,7.316,0,0,0,14.632,0V29.348a7.323,7.323,0,0,1,14.645,0v.042a10.96,10.96,0,0,0,21.92,0V24.076a1.843,1.843,0,0,0-1.829-1.815M554.04,16.323a1.836,1.836,0,0,1-.014-3.672h.014a1.829,1.829,0,0,1,1.836,1.822v.014A1.835,1.835,0,0,1,554.04,16.323Z" transform="translate(721.041 3723.208)" fill="#fff"></path></g></svg> 