<?xml version="1.0" encoding="UTF-8"?> <svg xmlns="http://www.w3.org/2000/svg" xmlns:xlink="http://www.w3.org/1999/xlink" id="Groupe_207" data-name="Groupe 207" width="43.997" height="45.951" viewBox="0 0 43.997 45.951"><defs><clipPath id="clip-path"><rect id="Rectangle_81" data-name="Rectangle 81" width="43.997" height="45.951" fill="#7f00ff"></rect></clipPath></defs><g id="Groupe_127" data-name="Groupe 127" clip-path="url(#clip-path)"><path id="Tracé_65" data-name="Tracé 65" d="M1.085,45.951A1.785,1.785,0,0,1,0,44.134c.022-3.081.008-6.162.009-9.243,0-1.228.538-1.766,1.773-1.774h.381c0-.173,0-.33,0-.487.029-1.116.012-2.235.1-3.345a5.058,5.058,0,0,1,1.287-2.973A2.5,2.5,0,0,0,4.248,24.5c-.039-5.339-.014-10.679-.027-16.018,0-1.062.495-1.365,1.365-1.384,1.629-.036,3.261-.028,4.89.006a1.5,1.5,0,0,1,.87.364.712.712,0,0,1,.044.662.78.78,0,0,1-.562.377c-1.54.031-3.081.017-4.621.017H5.691V24.435c.667-.158,1.34-.333,2.02-.474a5.87,5.87,0,0,1,3.521.5,7.088,7.088,0,0,1,2.218,1.664.956.956,0,0,0,.61.253c2.423.017,4.846.013,7.269.009a.681.681,0,0,1,.744.558.659.659,0,0,1-.432.823,1.285,1.285,0,0,1-.433.054q-3.342,0-6.674,0l.441,1.8H27.808c.544,0,.825.238.83.692.006.556-.176.742-.741.743H15.031v1.885H27.883c.512,0,.713.149.754.549a.684.684,0,0,1-.6.867,2.115,2.115,0,0,1-.446.019H17.15c0,.767.011,1.517,0,2.266a.711.711,0,0,1-.759.785c-.427-.021-.672-.314-.673-.8,0-.524,0-1.047,0-1.571s-.051-.586-.6-.586H2.42c-.976,0-.976,0-.976.982,0,2.872.008,5.744-.009,8.615,0,.408.122.55.525.55Q8.534,44.6,15.107,44.6c.527,0,.607-.091.607-.632q0-2.019,0-4.038c0-.489.247-.782.674-.8.446-.022.74.275.759.787.013.373,0,.746,0,1.153H34.622V24.944c-.246.059-.5.136-.767.183a2.673,2.673,0,0,1-2.026-.823c-1.3-.931-2.548-1.936-3.827-2.9a.86.86,0,0,0-.487-.132q-4.263-.012-8.525-.006c-.553,0-.85-.25-.852-.715s.292-.718.863-.719q3.477-.006,6.955,0h.475c-.4-.581-.766-1.151-1.172-1.693-.07-.094-.3-.1-.45-.1q-6.192-.007-12.384,0c-.608,0-.983-.41-.822-.918a.75.75,0,0,1,.825-.522c3.365.009,6.731.005,10.1.005h1.93l-.646-1.885H12.37a.68.68,0,1,1,0-1.345H23.458c-.054-1.624-.107-3.205-.162-4.847H14a.7.7,0,0,1-.8-.633c-.039-.4.136-.6.641-.718a2.525,2.525,0,0,1,.562-.081q4.2-.008,8.391,0h.548c0-.348.023-.673,0-.994a1.627,1.627,0,0,1,1.016-1.7q4.253-2.14,8.513-4.268L33.126,0H34.2c.1.051.2.1.3.153q4.237,2.12,8.473,4.242A1.684,1.684,0,0,1,44,6.094c-.042,1.18-.026,2.363-.007,3.544a17.991,17.991,0,0,1-.627,5.518,12.634,12.634,0,0,1-2.789,4.981,19.677,19.677,0,0,1-4.107,3.5.788.788,0,0,0-.39.756q.023,8.411.01,16.823a1.107,1.107,0,0,1-1.222,1.234H17.15c0,.517-.024.967,0,1.413a2.02,2.02,0,0,1-1.082,2.088ZM24.779,8.877l-.114.009c.128,1.548.173,3.109.4,4.642A10.871,10.871,0,0,0,27.873,19.2a23.715,23.715,0,0,0,5.57,4.4.517.517,0,0,0,.459-.016c1.262-.879,2.549-1.729,3.754-2.682a12.76,12.76,0,0,0,3.829-4.842A12.482,12.482,0,0,0,42.53,11.5c.082-1.775.026-3.558.006-5.337a.629.629,0,0,0-.282-.465Q38.127,3.6,33.976,1.557a.836.836,0,0,0-.647.012c-2.755,1.356-5.5,2.734-8.248,4.1a.49.49,0,0,0-.309.517c.017.9.007,1.794.007,2.691M13.472,33.1c0-1.067-.016-2.091,0-3.115a4.071,4.071,0,0,0-.77-2.4,4.842,4.842,0,0,0-6-1.894,4.476,4.476,0,0,0-2.9,3.361,34.117,34.117,0,0,0-.29,4.035H4.855c0-.969,0-1.909,0-2.849A3.527,3.527,0,0,1,6.4,27.251a3.679,3.679,0,0,1,5.73,2.114,7.575,7.575,0,0,1,.169,1.307c.027.8.008,1.605.008,2.426Zm-2.651,0a.433.433,0,0,0,.039-.107c0-.776.049-1.556-.008-2.327a5.984,5.984,0,0,0-.349-1.473,2.195,2.195,0,0,0-2.139-1.182,2.143,2.143,0,0,0-1.955,1.7A31.574,31.574,0,0,0,6.38,33.1Z" transform="translate(0)" fill="#7f00ff"></path><path id="Tracé_66" data-name="Tracé 66" d="M137.661,257.985c2.585,0,5.171-.009,7.756.015a.863.863,0,0,1,.678.345.659.659,0,0,1-.184.88,1.52,1.52,0,0,1-.7.188q-7.6.016-15.2,0a.814.814,0,0,1-.872-.518.6.6,0,0,1,.2-.748.907.907,0,0,1,.519-.159c2.6-.01,5.2-.007,7.8-.007" transform="translate(-117.499 -234.83)" fill="#7f00ff"></path><path id="Tracé_67" data-name="Tracé 67" d="M259.889,295.421c-.672,0-1.344,0-2.016,0a.718.718,0,1,1-.008-1.433q2.061-.007,4.122,0c.483,0,.666.193.676.671a.666.666,0,0,1-.667.759c-.7.016-1.4,0-2.106,0" transform="translate(-234.024 -267.599)" fill="#7f00ff"></path><path id="Tracé_68" data-name="Tracé 68" d="M131.692,222.427c-.642,0-1.285-.012-1.926,0a.628.628,0,0,1-.682-.608.583.583,0,0,1,.488-.758,2.074,2.074,0,0,1,.338-.07q1.814-.008,3.629,0a.728.728,0,0,1,.783.448.693.693,0,0,1-.222.837.769.769,0,0,1-.437.143c-.657.015-1.314.006-1.971.006" transform="translate(-117.486 -201.157)" fill="#7f00ff"></path><path id="Tracé_69" data-name="Tracé 69" d="M304.989,65.292a7.008,7.008,0,0,1-6.65-5.418,6.909,6.909,0,0,1,3.38-7.495,6.9,6.9,0,0,1,10.088,4.738.748.748,0,0,1-.494.883.758.758,0,0,1-.922-.493,12.856,12.856,0,0,0-.783-1.978,5,5,0,0,0-3.506-2.444,5.265,5.265,0,0,0-5.082,1.687,5.407,5.407,0,0,0,3.8,9,5.235,5.235,0,0,0,4.27-1.836,9.657,9.657,0,0,0,.933-1.474c.076-.124.112-.272.186-.4a.73.73,0,0,1,1.311.613,6.634,6.634,0,0,1-4.545,4.248c-.646.177-1.321.248-1.983.367" transform="translate(-271.421 -46.889)" fill="#7f00ff"></path><path id="Tracé_70" data-name="Tracé 70" d="M343.563,107.72c.91-.908,1.765-1.762,2.621-2.615a.734.734,0,0,1,.993-.075.641.641,0,0,1,.14.909,2.391,2.391,0,0,1-.323.416q-1.325,1.336-2.659,2.663c-.572.571-.932.574-1.5.013s-1.109-1.13-1.683-1.675a.923.923,0,0,1-.24-.981.681.681,0,0,1,1.14-.184c.5.489.983,1,1.506,1.53" transform="translate(-310.276 -95.458)" fill="#7f00ff"></path></g></svg> 