<?xml version="1.0" encoding="UTF-8"?> <svg xmlns="http://www.w3.org/2000/svg" xmlns:xlink="http://www.w3.org/1999/xlink" id="Groupe_190" data-name="Groupe 190" width="90" height="90" viewBox="0 0 90 90"><defs><clipPath id="clip-path"><rect id="Rectangle_110" data-name="Rectangle 110" width="90" height="90" fill="#fda42a"></rect></clipPath></defs><g id="Groupe_189" data-name="Groupe 189" clip-path="url(#clip-path)"><path id="Tracé_83" data-name="Tracé 83" d="M103.118,99.666a1.269,1.269,0,0,0-1.275,1.275v3.753a2.532,2.532,0,0,1-5.063,0v-5.2A15.2,15.2,0,0,0,72.74,87.132,15.2,15.2,0,0,0,48.7,99.489v10.02a5.063,5.063,0,1,0,10.126,0v-1.735a5.063,5.063,0,1,1,10.126,0v1.735a5.063,5.063,0,0,0,10.126,0v-4.957a5.063,5.063,0,1,1,10.126,0v.035a7.577,7.577,0,1,0,15.153,0l.035-3.647a1.269,1.269,0,0,0-1.275-1.275M89.2,95.559a1.275,1.275,0,1,1,1.275-1.275A1.269,1.269,0,0,1,89.2,95.559" transform="translate(-31.458 -54.453)" fill="#fda42a"></path><path id="Tracé_84" data-name="Tracé 84" d="M45.035,5.275A39.756,39.756,0,0,1,73.147,73.147,39.756,39.756,0,1,1,16.924,16.924,39.564,39.564,0,0,1,45.035,5.275m0-5.275A45,45,0,1,0,90,45,45.051,45.051,0,0,0,45.035,0" fill="#fda42a"></path></g></svg> 