<?xml version="1.0" encoding="UTF-8"?> <svg xmlns="http://www.w3.org/2000/svg" width="160.919" height="87.47" viewBox="0 0 160.919 87.47"><path id="elephant_jaune" d="M652.761,44.464a3.658,3.658,0,0,0-3.658,3.658V58.985a7.3,7.3,0,0,1-7.288,7.316h-.028a7.3,7.3,0,0,1-7.316-7.288V43.951A43.9,43.9,0,0,0,564.986,8.287,43.9,43.9,0,0,0,495.5,43.951V72.9a14.632,14.632,0,0,0,29.263,0v-5.03a14.631,14.631,0,1,1,29.263,0V72.9a14.632,14.632,0,0,0,29.263,0V58.638a14.645,14.645,0,0,1,29.291,0v.083a21.92,21.92,0,0,0,43.839,0V48.094a3.686,3.686,0,0,0-3.658-3.63M612.579,32.59a3.672,3.672,0,0,1-.028-7.343h.028a3.658,3.658,0,0,1,3.672,3.644v.028A3.671,3.671,0,0,1,612.579,32.59Z" transform="translate(-495.5 -0.057)" fill="#fda42a"></path></svg> 