<?xml version="1.0" encoding="UTF-8"?> <svg xmlns="http://www.w3.org/2000/svg" width="72.36" height="72.36" viewBox="0 0 72.36 72.36"><path id="icon_gender" d="M58.679,22.451a21.668,21.668,0,0,1-10.847,18.7,27.343,27.343,0,0,1-4,1.856c-.856,0-.856-.856-.856-1,0-.428,0-.712.571-.855A30.262,30.262,0,0,0,49.4,37.866a3.965,3.965,0,0,0,.143-1.286c0-.285-.285-1.427-.285-2.14,0-2.284-4-6.994-5.851-6.994-.428,0-1.856,1-2.711,1.285a7.432,7.432,0,0,1-3.711.714,6.671,6.671,0,0,1-3.567-.714c-.856-.285-2.427-1.285-2.712-1.285-1.285,0-4.566,3.14-4.852,4a12.9,12.9,0,0,0-1.142,3,12.3,12.3,0,0,0-.143,2.14v1.286A14.221,14.221,0,0,0,27,39.434a32.124,32.124,0,0,0,3.853,1.856,1.09,1.09,0,0,1,.285.712,1.254,1.254,0,0,1-.856,1c-1.426,0-6.422-3.426-6.85-3.854a18.344,18.344,0,0,1-3.71-3.71,20.423,20.423,0,0,1-3.282-6.281,48.946,48.946,0,0,1-1-4.852V20.738C17.294,7.322,27.283.9,36.987.9A21.653,21.653,0,0,1,58.679,22.451Zm-2-.143c0,4-1.142,9.419-5.137,13.131A12.228,12.228,0,0,0,49.4,29.872a12.489,12.489,0,0,0-3.71-3.567c-.143,0-.428,0-.428-.43,0-.284.714-1.142.856-1.426a17.878,17.878,0,0,0,1.711-4.282V17.312C46.549,11.033,41.7,8.036,36.987,8.036a10.594,10.594,0,0,0-10.7,10.7c0,1.856-.143,2.569.856,4.425.428.855,1.713,2.427,1.713,2.711,0,.43-.285.43-.428.43a11.2,11.2,0,0,0-4.282,4.281,16.092,16.092,0,0,0-1.569,4.853c-.143,0-.428-.287-.714-.43-2-1.713-4.425-8.42-4.425-10.847V20.738a19.659,19.659,0,0,1,39.245,1.57ZM45.693,18.74a8.475,8.475,0,0,1-8.706,8.706,8.747,8.747,0,0,1-8.133-5.565,14.758,14.758,0,0,1-.428-1.713V17.455a8.448,8.448,0,0,1,8.562-7.278A8.36,8.36,0,0,1,45.693,18.74ZM19.434,44.859c.714.57,7.992.57,7.992,2.141,0,.855-1.142.855-1.285.855-.285,0-5.708.285-7.707-1.283C16.3,45.143,15.867,42,14.725,39.72c-1.285.856-2,3.283-2.712,4.566-.427.572-.712,2.285-1.711,2.427-2.427.428-4.853.714-7.278,1.286,1.285,2.14,4.566,3.853,5.423,6.136L7.3,61.412a.5.5,0,0,0,.285.144l6.85-3.426c1.427.428,7.849,3.426,7.849,4.424,0,.287-.428.715-1,.856l-6.85-3.282c-2.427,1.142-6.85,3.426-7.278,3.426a1.922,1.922,0,0,1-1.854-2L6.59,54.419C6.019,53.706.882,49.425.882,48c0-.572-.143-1.427.856-1.714,2.427-.712,5.28-.57,7.849-1.426.714-.285,2.568-7.28,4.852-7.28S18.863,44.573,19.434,44.859Zm45.1,0c1.285.57,2.853.427,4.281.714,1.285.284,4.424-.287,4.424,2.427,0,1.426-5.137,5.707-5.708,6.421l1.285,7.137c.143,1.427-1.427,2-2,2-.285,0-4.852-2.284-7.277-3.426l-6.85,3.282q-.856-.426-.856-.856c0-1.142,6.422-4,7.707-4.566l6.849,3.569h.428v-1l-1.141-6.422c.712-2.141,4-4,5.423-6,0-.141-.285-.285-.428-.428-2.284-.285-4.71-.571-6.85-1-1.142-.141-1.427-1.854-1.856-2.427-.714-1.426-1.427-3-2.282-4.566a.521.521,0,0,0-.428.144c-.714,1.569-1.57,3.282-2.427,4.852-.285.427-.428,1.569-1.142,1.856a40.49,40.49,0,0,1-7.849,1.283c-.427,0-1.141-.284-1.141-.855a.945.945,0,0,1,.855-1,44.191,44.191,0,0,1,4.853-.714,6.487,6.487,0,0,0,2.282-.427c.714-.43,2.569-7.28,4.853-7.28S63.959,44.716,64.53,44.859ZM38.7,42.431c1.713,2.428,2.853,5.568,4.424,8.279,1.57.285,3.283.428,4.995.714,1.285.285,5.708-.144,5.708,2.712,0,1.713-6.421,6.707-7.134,7.992l1.569,8.991c.143,1.285-1.283,2.141-2.14,2.141-1.713,0-7.992-4.282-8.991-4.282-1.426,0-7.421,4.282-9.133,4.282a2.1,2.1,0,0,1-2.141-2.141l1.57-8.991c-1.142-1.285-2.712-2.712-3.853-4-1.285-1.283-3.283-2.569-3.283-4,0-.714.428-1.857,1.427-2,2.853-.714,6.136-.858,9.275-1.427,1.427-2.569,2.712-5.567,4.282-8.279a1.4,1.4,0,0,1,1.711-.856C37.843,41.574,38.129,41.29,38.7,42.431Zm-1.427,1.143c1,2,1.856,4.138,3,6.279.571.856.571,2.425,2,2.712,3,.856,6.422,1,9.562,1.427-2.141,2.425-4.709,4.852-7.136,7.278v.571l1.57,9.419h-.428l-8.849-4.425-8.7,4.425h-.428L29.567,61.7l-7.278-7.423c.428-.427,1.285-.427,2-.571,2.284-.428,5-.712,7.564-1.141.285,0,1-1,1.142-1.286,1.142-2.711,2.568-5.137,3.853-7.705Zm.714,8.135c0,.428-1.142,3.853-2.569,4.995-1.283,1-4.709,1-4.995,1-.428,0-1-.714-1-1,0-.428.144-.855.571-.855a38.584,38.584,0,0,1,4.282-.715c0-.141,1.711-4.281,2.711-4.281A1.254,1.254,0,0,1,37.986,51.709Z" transform="translate(-0.875 -0.9)" fill="#fff" fill-rule="evenodd"></path></svg> 