<?xml version="1.0" encoding="UTF-8"?> <svg xmlns="http://www.w3.org/2000/svg" width="49.747" height="72.36" viewBox="0 0 49.747 72.36"><path id="icon_lab" d="M32.162,7.325a7.082,7.082,0,0,1-3.608,5.967v4.282H41.93c1.955-.151,4.359,3.214,4.058,5.05H50.2l.451.458v15.3c-.15.153-.451.612-.9.612H45.988c0,1.529-1.654,4.9-3.908,4.9H33.965v3.365H45.988c1.5-.459,4.66,1.988,4.66,3.824V72.648c-.15.153-.3.458-.6.612H1.5c-.15-.154-.451-.307-.6-.612V51.077c.15-2.3,3.006-3.824,4.508-3.824H17.582V43.888H9.316c-1.654,0-4.359-3.06-3.756-4.9H1.652C1.5,38.838,1.2,38.685.9,38.38v-15.3l.451-.458H5.56c-.6-1.683,1.654-5.05,3.908-5.05H22.994V13.292a6.6,6.6,0,0,1-3.608-5.967,6.388,6.388,0,1,1,12.776,0Zm-2.1,0A4.5,4.5,0,0,1,25.7,11.761,4.367,4.367,0,0,1,21.49,7.325,4.147,4.147,0,0,1,25.7,3.041,4.37,4.37,0,0,1,30.057,7.325Zm-3.608,6.731v3.366H25.1V14.056Zm15.03,5.66c.9-.153,2.405,1.224,2.405,2.3V39.3c-.3.612-1.053,2.448-2.1,2.448H9.617c-.6-.305-1.955-1.529-1.955-2.141V22.012c.151-.612,1.2-2.6,2.256-2.3ZM20.439,28.284a4.726,4.726,0,0,1-4.66,4.743,4.684,4.684,0,0,1-4.508-4.743,4.3,4.3,0,0,1,4.508-4.59A4.5,4.5,0,0,1,20.439,28.284Zm19.838,0a4.587,4.587,0,1,1-9.168,0,4.3,4.3,0,0,1,4.51-4.59A4.5,4.5,0,0,1,40.277,28.284ZM5.408,24.765V36.85H3V24.765Zm43.135,0V36.85h-2.4V24.765ZM18.334,28.284a2.639,2.639,0,0,1-2.405,2.6,2.556,2.556,0,0,1-2.554-2.6,2.228,2.228,0,0,1,2.4-2.448A2.35,2.35,0,0,1,18.334,28.284Zm19.838,0a2.747,2.747,0,0,1-2.554,2.6,2.607,2.607,0,0,1-2.405-2.6,2.229,2.229,0,0,1,2.405-2.448A2.349,2.349,0,0,1,38.172,28.284ZM32.461,36.7a1.1,1.1,0,0,1,.451.919,1.139,1.139,0,0,1-1.051,1.07H19.537c-.9-.611-.9-.765-.9-1.07a1.1,1.1,0,0,1,.451-.919Zm-.6,7.343V47.1H19.687V44.04ZM45.688,49.4c.6,0,2.855.765,2.855,1.988V71.119H40.428V60.868c-.151-.154-.6-.765-1.053-.765H12.021c-.3.153-.9.459-.9.917v10.1H3V51.384A2.593,2.593,0,0,1,5.709,49.4ZM10.068,53.83a2.739,2.739,0,0,1-2.855,2.754A2.629,2.629,0,0,1,4.507,53.83a2.756,2.756,0,0,1,2.706-2.906A2.88,2.88,0,0,1,10.068,53.83Zm36.973,0a2.781,2.781,0,0,1-5.561,0,2.548,2.548,0,0,1,2.705-2.753A2.666,2.666,0,0,1,47.041,53.83ZM7.814,53.22c0,.153.15.153.15.611,0,.613-.6.613-.75.613a.557.557,0,0,1-.6-.613c0-.458.15-.458.3-.611Zm37.123.611a.8.8,0,0,1-.3.613h-.9c0-.154-.15-.307-.15-.613,0-.458.15-.611.6-.611S44.936,53.372,44.936,53.83ZM38.172,62.4v8.72h-24.8V62.4Z" transform="translate(-0.9 -0.9)" fill="#fff" fill-rule="evenodd"></path></svg> 