<?xml version="1.0" encoding="UTF-8"?> <svg xmlns="http://www.w3.org/2000/svg" width="150" height="150" viewBox="0 0 150 150"><g id="icon_expertise" transform="translate(-219 -1703)"><g id="Ellipse_2" data-name="Ellipse 2" transform="translate(219 1703)" fill="none" stroke="#fda42a" stroke-width="2"><circle cx="75" cy="75" r="75" stroke="none"></circle><circle cx="75" cy="75" r="74" fill="none"></circle></g><path id="Tracé_12" data-name="Tracé 12" d="M53.2,5.377A5.937,5.937,0,0,1,53.388,7.3c6.738,2.5,13.476,4.813,20.214,7.123.769-1.732,3.465-2.888,5-2.888a6.207,6.207,0,0,1,5.775,5.776c0,3.08-2.888,4.812-2.888,5.2s4.621,13.284,7.123,19.828c4.043,0,6.353,2.888,6.353,5.775A5.631,5.631,0,0,1,90.543,53.7a6.559,6.559,0,0,1-1.926.192c-2.5,6.546-7.123,19.443-7.123,20.02,0,.386,1.155.963,1.54,1.733a8.3,8.3,0,0,1,1.348,3.272,6.412,6.412,0,0,1-5.967,5.967c-1.155,0-4.043-1.348-4.812-2.888-6.738,2.31-13.476,4.621-20.214,7.123,0,4.043-2.888,6.353-5.775,6.353-1.925,0-5-1.348-5.583-4.427-.192-.578,0-1.349-.192-1.926-6.544-2.5-13.282-4.812-20.02-7.123-.769,1.54-3.85,2.888-5,2.888-3.081,0-5.775-3.272-5.775-5.967,0-2.888,2.886-4.813,2.886-5.006,0-.577-4.62-13.282-7.123-20.02C2.375,53.888.45,51,.45,48.113a5.573,5.573,0,0,1,4.427-5.583c.385-.192,1.348,0,1.925-.192,2.5-6.352,7.123-19.443,7.123-19.828,0-.577-1.346-1.155-1.732-1.732a8.016,8.016,0,0,1-1.154-3.465,6.208,6.208,0,0,1,5.775-5.776c1.154,0,4.235,1.155,5,2.888C28.363,12.308,35.1,9.8,41.838,7.3a1.441,1.441,0,0,0,.192-.962A5.653,5.653,0,0,1,53.2,5.377ZM50.887,6.533A2.934,2.934,0,0,1,47.613,9.8c-2.5,0-3.08-1.54-3.08-3.272,0-2.118.963-3.081,3.08-3.081C50.116,3.452,50.887,4.8,50.887,6.533Zm-4.621,5.775V17.7a26.2,26.2,0,0,0-4.042.385,9.55,9.55,0,0,0-2.5.577,12.708,12.708,0,0,0-2.888.963,13.392,13.392,0,0,0-4.427,2.118c-1.926.962-4.813,3.849-5.39,3.849-.386,0-5.006-4.62-5.006-5.2a16.215,16.215,0,0,0,.771-2.7c0-.385-.192-.963.192-1.155C29.325,14.232,42.031,9.8,42.609,9.8,42.609,9.8,44.726,11.922,46.266,12.308Zm25.989,4.235c.577.192.192,1.348.385,2.117a6.833,6.833,0,0,1,.771,1.733c0,.577-4.621,5.2-5.2,5.2-.385,0-2.888-2.5-4.235-3.272a19.413,19.413,0,0,0-4.427-2.31A28.97,28.97,0,0,0,49.154,17.7v-5.39c2.117-.578,3.272-2.5,3.657-2.5S65.709,14.04,72.255,16.543Zm-52.169.771a2.934,2.934,0,0,1-3.272,3.272c-2.5,0-3.081-1.541-3.081-3.272,0-2.118.963-3.081,3.081-3.081C19.315,14.232,20.086,15.58,20.086,17.313Zm61.6,0a2.935,2.935,0,0,1-3.273,3.272c-2.5,0-3.08-1.541-3.08-3.272,0-2.118.963-3.081,3.08-3.081C80.917,14.232,81.688,15.58,81.688,17.313Zm-6.161,30.8A27.453,27.453,0,0,1,47.613,76.027c-9.432,0-19.636-4.235-25.6-16.556-.192-.385-2.117-6.737-2.117-8.084V45.033c2.888-17.325,15.4-24.64,27.72-24.64C63.592,20.393,75.527,32.52,75.527,48.113ZM25.09,27.515c0,.194-7.892,8.471-7.892,19.251h-5.39c-.577-2.309-2.5-3.272-2.5-3.658,0-.577,4.235-13.09,6.738-19.442.192-.771,1.348-.386,2.118-.578a6.108,6.108,0,0,1,1.732-.577C20.47,22.51,25.09,27.13,25.09,27.515Zm52.169-4.427c.578.192,1.733-.192,1.926.386,2.7,6.352,6.93,19.057,6.93,19.634,0,0-2.5,2.118-2.5,3.658h-5.39a32.838,32.838,0,0,0-2.5-10.395A13.43,13.43,0,0,0,73.6,32.328c-.963-1.732-3.273-4.235-3.273-4.813a30.8,30.8,0,0,1,5.006-5C75.911,22.51,76.682,23.087,77.259,23.087ZM56.469,35.794a8.7,8.7,0,0,1-8.856,8.855c-5.583,0-8.663-4.427-8.663-8.855a8.67,8.67,0,0,1,8.663-8.856A8.816,8.816,0,0,1,56.469,35.794Zm-2.5,0a6.053,6.053,0,0,1-6.353,6.352c-4.235,0-6.16-3.08-6.16-6.352a5.861,5.861,0,0,1,6.16-6.161C51.848,29.633,53.967,32.52,53.967,35.794ZM9.3,48.113a2.935,2.935,0,0,1-3.272,3.273c-2.5,0-3.08-1.541-3.08-3.273,0-2.117.962-3.08,3.08-3.08C8.536,45.033,9.3,46.381,9.3,48.113Zm83.162,0a2.935,2.935,0,0,1-3.272,3.273c-2.5,0-3.08-1.541-3.08-3.273,0-2.117.962-3.08,3.08-3.08C91.7,45.033,92.467,46.381,92.467,48.113ZM53.2,46.958c10.01,1.348,9.625,7.123,9.625,12.707,0,.577.385,5.2-1.54,5.2H33.946c-.578-.192-1.348-.963-1.348-1.348V56.006c-.578-4.235,5.2-9.625,9.432-9.048Zm-36,2.7a28.745,28.745,0,0,0,.385,4.043,15.127,15.127,0,0,0,.578,2.5,16.95,16.95,0,0,0,.962,2.888,18.314,18.314,0,0,0,2.118,4.427c.962,1.732,3.849,4.813,3.849,5.2,0,.577-4.62,5.2-5.2,5.2-.386,0-1.155-.769-1.732-.769-.578-.192-1.733.385-2.118-.192C13.348,66.594,9.3,53.7,9.3,53.311c0-.192,2.118-2.31,2.5-3.658Zm37.731,0c1.925-.192,5.2,3.081,5.2,4.62v7.893H35.294V54.273c0-1.539,3.08-4.812,5-4.62Zm28.683,0c.192,2.118,2.5,3.273,2.5,3.658s-4.427,12.9-6.93,19.443c-.192.577-1.348.192-1.926.385s-1.348.769-1.925.769c-.385,0-5.006-4.62-5.006-5.2,0-.192,7.893-8.663,7.893-19.059ZM29.519,72.562a26.022,26.022,0,0,0,6.352,3.657,32.87,32.87,0,0,0,10.395,2.5v5.39c-2.309.192-3.272,2.5-3.657,2.5-.578,0-13.09-4.429-19.443-6.93-.771-.192-.385-1.349-.577-1.926a7.3,7.3,0,0,1-.578-1.925,30.76,30.76,0,0,1,5.006-5.006C27.593,70.829,28.556,71.984,29.519,72.562ZM73.41,75.834c0,.577-.771,1.348-.771,1.925-.192.577.385,1.733-.192,1.926-6.353,2.694-19.251,6.93-19.636,6.93-.192,0-2.31-2.5-3.657-2.5v-5.39a29.24,29.24,0,0,0,4.042-.578,15.179,15.179,0,0,0,2.5-.577,16.853,16.853,0,0,0,2.888-.963,18.307,18.307,0,0,0,4.427-2.117c1.732-.963,4.813-3.658,5.2-3.658C68.789,70.829,73.41,75.45,73.41,75.834Zm-53.324,3.08a2.934,2.934,0,0,1-3.272,3.272c-2.5,0-3.081-1.54-3.081-3.272,0-2.117.963-3.08,3.081-3.08C19.315,75.834,20.086,77.182,20.086,78.914Zm61.6,0a2.935,2.935,0,0,1-3.273,3.272c-2.5,0-3.08-1.54-3.08-3.272,0-2.117.963-3.08,3.08-3.08C80.917,75.834,81.688,77.182,81.688,78.914Zm-30.8,10.78a2.934,2.934,0,0,1-3.273,3.273c-2.5,0-3.08-1.54-3.08-3.273,0-2.117.963-3.079,3.08-3.079C50.116,86.615,50.887,87.962,50.887,89.694Z" transform="translate(246.03 1729.53)" fill="#fda42a" fill-rule="evenodd"></path></g></svg> 