<?xml version="1.0" encoding="UTF-8"?> <svg xmlns="http://www.w3.org/2000/svg" width="150" height="150" viewBox="0 0 150 150"><g id="icon_sens-du-service" transform="translate(-615 -1703)"><g id="Ellipse_4" data-name="Ellipse 4" transform="translate(615 1703)" fill="none" stroke="#fda42a" stroke-width="2"><circle cx="75" cy="75" r="75" stroke="none"></circle><circle cx="75" cy="75" r="74" fill="none"></circle></g><path id="Tracé_14" data-name="Tracé 14" d="M51.865,12.216c1.6-.4,3.8-1.609,5.8-1.609,3.8,0,9.394,3.018,10.393,8.852.2.6-.4,2.817,1.2,2.817.4,0,2.4-.4,2.8-.4a13.984,13.984,0,0,1,13.79,13.881c0,9.858-9.593,12.875-9.593,13.68,0,1.207,5.2,3.017,6.395,4.224V59.9c-1.8,1.408-4,1.81-5.8,3.017-.4.2-1.6,3.622-1.6,4.829,0,.4,3.6,5.23,3.6,5.834,0,.4-2.8,6.035-4,6.035-.6,0-5-.6-5.4-.6-1.4,0-3.6,2.413-3.8,3.018-.2,0-.2.4-.2,1.006,0,.4.6,4.828.6,5.431,0,1.207-5.6,4.024-6,4.024-.6,0-5.4-3.621-5.8-3.621a11.147,11.147,0,0,0-4.4,1.207c-1.8.8-1.4,5.432-3.4,6.035a9.883,9.883,0,0,1-3.2.4,8.788,8.788,0,0,1-3-.4c-.6,0-.8-1.007-1.2-1.409-.6-1.408-.8-3.42-2.2-4.626-1.2-1.007-4-1.207-4.4-1.207-.6,0-5.4,3.621-5.8,3.621-.6,0-6-2.817-6-4.024,0-.6.6-5.029.6-5.431,0-1.209-3.6-4.024-4-4.024-.6,0-5,.6-5.4.6-1.4,0-4-5.633-4-6.035,0-.6,3.6-5.432,3.6-5.834a12.264,12.264,0,0,0-1.4-4.426c-.2-.6-1.4-.805-1.8-1.207C6.7,61.3,5.5,61.3,4.1,59.9V53.658c1.6-1.408,3.8-2.213,5.8-3.219a.929.929,0,0,0,.6-1.006c0-.4-.2-.4-.4-.6C6.1,47.825.9,41.587.9,37.967V33.742c.6-5.231,6.995-11.869,12.591-11.669A20.633,20.633,0,0,1,33.678.95,21.315,21.315,0,0,1,51.865,12.216Zm-1.6,1.811c.2.2.6,1.207,1.2,1.207.4,0,1.6-1.207,2.6-1.609a6.159,6.159,0,0,1,3.6-.6c3.6,0,7.8,1.408,8.4,6.84a12.685,12.685,0,0,1-.2,4.024c0,.6.6,1.408,1.2,1.408.4,0,1-.6,1.4-.6a13.691,13.691,0,0,1,3.6-.4c7.394,0,11.591,5.23,11.591,11.467a23.282,23.282,0,0,1-.4,3.219c-.4,3.018-5.8,8.45-9.193,8.45H52.665V40.985a25.9,25.9,0,0,0,3.2-3.622V33.541c2.2-1.207,3-2.615,3-4.224a4.3,4.3,0,0,0-8.593,0c0,1.609.6,3.017,3,4.224v3.621c-1.2,1.207-3.2,3.018-3.2,3.622v6.639h-5.4V23.884c2.2-1.207,3-2.615,3-4.224a4.4,4.4,0,0,0-4.4-4.226,4.23,4.23,0,0,0-4.2,4.226c0,1.609.6,3.017,3,4.224V47.422h-5.4V40.582c-1.2-1.408-3-3.219-4.8-5.029V31.931c2.2-1.207,3-2.615,3-4.224a4.3,4.3,0,0,0-8.594,0c0,1.609.6,3.017,3,4.224v3.622a39.006,39.006,0,0,0,4.8,5.432v6.437H12.492c-3.6-.2-9.394-5.432-9.394-9.456V33.742c.4-2.615,2-6.639,5.8-8.248a10.883,10.883,0,0,1,3.6-1.207c1-.2,2.4.4,3.4-1.207V18.653C18.088,7.387,26.083,3.365,33.678,3.365A17.343,17.343,0,0,1,50.267,14.027Zm-5,5.633c0,1.81-1,2.011-2,2.011-1.8,0-1.8-1.007-1.8-2.011,0-1.409.4-1.811,1.8-1.811C45.07,17.849,45.27,18.653,45.27,19.66ZM32.479,27.707c0,1.81-1,2.011-2,2.011-1.8,0-1.8-1.006-1.8-2.011,0-1.409.4-1.811,1.8-1.811C32.279,25.9,32.479,26.7,32.479,27.707Zm23.983,1.609c0,1.811-1,2.011-2,2.011-1.8,0-1.8-1.006-1.8-2.011,0-1.409.4-1.811,1.8-1.811C56.263,27.505,56.462,28.309,56.462,29.316ZM18.888,49.836c-.4,3.018-.6,6.237-.6,6.639,0,14.082,11.792,25.551,24.983,25.551,10.593,0,23.585-8.45,25.183-22.534V53.458a18,18,0,0,1-.6-3.622,36.182,36.182,0,0,0,5.4,0c1,0,0,.4,1.2,1.609,1.6,1.409,4,2.213,6,3.219V58.89c-2,1.006-4.6,1.408-6,3.219-1.2,1.408-1.6,5.23-1.6,5.834,0,.4,3.6,5.231,3.6,5.633a11.936,11.936,0,0,1-1.8,3.621c-1.8,0-5.2-.4-5.6-.4-.6,0-.8-.2-1,0a27.345,27.345,0,0,0-4.8,4.828c-.2,0,0,.4,0,1.006,0,.4.4,4.024.4,4.426a2.2,2.2,0,0,1-.2,1.207,9.393,9.393,0,0,1-3.4,1.811c-.4,0-5-3.622-5.6-3.622-.4,0-4.2.4-5.8,1.609-1.8,1.409-2.2,4.024-3.2,6.035h-4.2c-1-2.011-1.4-4.626-3.2-6.035-1.8-1.207-5.4-1.609-5.995-1.609-.4,0-5,3.622-5.6,3.622a14.22,14.22,0,0,1-3.4-1.811V87.054c0-.4.4-4.023.4-4.426,0-.6,0-.805-.2-1.006a35.14,35.14,0,0,0-4.6-4.828c-.2-.2-.6,0-1,0-.6,0-3.8.4-5.6.4a11.936,11.936,0,0,1-1.8-3.621c0-.4,3.6-5.231,3.6-5.633,0-.6-.6-4.224-1.8-5.834C10.693,60.3,8.3,59.9,6.3,58.89V54.664a32.662,32.662,0,0,0,5.8-3.219c.4-.4.4-1.006.6-1.609h.8A33.367,33.367,0,0,0,18.888,49.836Zm46.368.2a19.463,19.463,0,0,1,.8,6.639A22.724,22.724,0,0,1,43.271,79.611c-7.994,0-18.587-5.03-21.786-16.095-.2-1.207-.8-3.419-.8-3.822V53.658c.2-1.207.6-2.413.8-3.621ZM38.074,54.06v2.213h-2.2V54.06Zm6.4,0v2.213h-2.2V54.06Zm6.4,0v2.213h-2.2V54.06Z" transform="translate(646.629 1729.53)" fill="#fda42a" fill-rule="evenodd"></path></g></svg> 