<?xml version="1.0" encoding="UTF-8"?> <svg xmlns="http://www.w3.org/2000/svg" width="58.792" height="72.36" viewBox="0 0 58.792 72.36"><path id="icon_experience" d="M30.02,3.016c2.42,0,5.139-2.137,7.708-2.137,3.93,0,3.779,4.12,7.859,7.172a10.8,10.8,0,0,0,4.987,1.68c1.815.3,4.233,2.593,4.233,4.579-.151,3.663-.151,4.578-.151,4.884,0,4.121,4.836,6.105,4.836,10.074,0,3.358-3.023,3.968-4.685,8.242-.6,1.526,0,4.884,0,5.188,0,3.512-.756,5.344-5.744,6.717L53.9,67.58c-.151.458-.6,1.221-1.208,1.221l-8.918-2.29c-.3.153-6.347,6.717-7.406,6.717a1.436,1.436,0,0,1-1.21-1.068c-.906-3.968-3.022-11.449-3.022-11.907,0-1.068.755-1.068,1.057-1.068.454,0,.756,0,.907.458,1.057,3.053,1.964,6.563,2.721,9.769l.3.307c1.813-1.833,4.231-5.038,6.2-5.647l7.557,1.983a.561.561,0,0,0,.151-.456L46.8,50.027a2,2,0,0,0-1.21.458c-1.662.916-2.116,2.595-3.022,3.968-1.361,2.137-3.023,3.359-4.838,3.359-2.719,0-4.987-1.986-8.009-2.138-1.663,5.495-3.023,11.142-4.686,16.791a1.312,1.312,0,0,1-1.057.763c-.907,0-6.348-6.105-7.406-6.717L7.652,68.8c-.906,0-1.057-.609-1.057-1.221,0-.456,2.267-9.463,3.626-14.042.151-.916.756-.763,1.059-.763.454,0,1.208-.153,1.208,1.068L9.315,65.748l.151.305,7.557-1.983c2.116.609,4.383,3.814,6.347,5.647L27,56.743a41.839,41.839,0,0,1-4.685,1.07c-3.779,0-4.535-4.733-7.708-7.328-1.361-1.068-3.023-1.221-4.535-1.526-2.267-.3-4.685-2.595-4.685-4.274V40.869a5.622,5.622,0,0,0,0-2.747C3.723,33.848.7,32.474.7,29.269c0-3.968,4.534-5.953,4.836-9.311,0-.611-.151-1.833-.151-2.138V14c-.3-1.679,3.023-4.426,4.685-4.426a1.3,1.3,0,0,1,1.21,1.07,1.289,1.289,0,0,1-.6,1.068c-.756.458-3.174,1.221-3.023,2.9.151,3.359.151,4.274.151,4.733,0,5.037-4.836,7.174-4.836,9.921,0,1.832,1.662,2.9,3.023,5.037a8.914,8.914,0,0,1,1.511,2.9,34.833,34.833,0,0,1,.151,5.342c0,1.068-.3,2.595,1.059,3.358,1.813,1.221,3.778,1.374,5.895,1.984,4.08,1.221,4.534,7.632,7.858,7.632,2.569,0,4.384-2.137,7.557-2.137s5.139,2.137,7.708,2.137,3.628-3.816,4.989-5.495a7.026,7.026,0,0,1,2.87-2.137,19.358,19.358,0,0,1,3.174-.916c.907-.305,3.325-.611,3.779-2.595V40.716a7.528,7.528,0,0,1-.151-1.984c-.6-3.816,4.836-6.716,4.836-9.463,0-2.137-2.721-4.274-3.93-5.953-1.208-1.832-1.057-3.663-.755-5.5V14.158a3.211,3.211,0,0,0-2.267-2.137c-1.512-.459-3.174-.916-4.686-1.374-4.231-1.221-4.685-7.48-7.859-7.48-2.569,0-4.534,2.137-7.708,2.137s-4.987-2.137-7.557-2.137c-3.173,0-4.383,6.565-6.5,6.565a1.033,1.033,0,0,1-1.059-1.221c0-.917.6-1.374,1.512-2.595.756-1.221,1.662-3.207,3.324-4.275A3.109,3.109,0,0,1,22.313.879C25.032.879,27.6,3.016,30.02,3.016Zm8.464,10.072c1.059.916,2.116.765,2.116,1.984,0,.765-.906,1.221-1.208,1.221-.454,0-2.267-1.374-3.477-1.83a25.055,25.055,0,0,0-5.895-1.068,15.952,15.952,0,0,0,0,31.9A16.159,16.159,0,0,0,45.89,30.8V27.741c-.3-1.22-.906-3.662-.906-4.121a.958.958,0,0,1,1.057-1.067c1.813,0,2.116,6.258,2.116,6.716A18.274,18.274,0,0,1,30.02,47.585c-.3,0-3.022-.458-4.231-.611-6.649-.914-13.3-9.312-13.452-13.89,0-.611-.3-1.832-.3-2.138V27.741A18.084,18.084,0,0,1,30.02,11.105C32.74,11.105,35.915,11.409,38.484,13.088ZM46.041,16.9c0,.765-11.788,13.281-15.718,17.86-.6.611-.906,1.068-1.511,1.068-1.059,0-6.046-6.716-6.952-7.784-.151-.153-.151-.307-.151-.763a1.01,1.01,0,0,1,1.057-1.07c1.059,0,5.895,6.412,6.2,6.717,4.987-5.647,9.975-11.448,15.114-16.944,0-.151.3-.151.756-.151A1.074,1.074,0,0,1,46.041,16.9Z" transform="translate(-0.7 -0.869)" fill="#fff" fill-rule="evenodd"></path></svg> 