<?xml version="1.0" encoding="UTF-8"?> <svg xmlns="http://www.w3.org/2000/svg" width="150" height="150" viewBox="0 0 150 150"><g id="icon_synergie" transform="translate(-822 -1703)"><g id="Ellipse_5" data-name="Ellipse 5" transform="translate(822 1703)" fill="none" stroke="#fda42a" stroke-width="2"><circle cx="75" cy="75" r="75" stroke="none"></circle><circle cx="75" cy="75" r="74" fill="none"></circle></g><path id="Tracé_15" data-name="Tracé 15" d="M63.6.77A22.918,22.918,0,0,1,68.09,2.149a27.617,27.617,0,0,1,11.317,8.473c.975.985,1.756,2.561,2.926,3.941A24.565,24.565,0,0,0,86.821,19.1c.195.2.585,0,1.17,0h5.854a3.189,3.189,0,0,1,3.121,2.955V37.421c-.585,3.547-4.293,3.152-6.048,3.152-1.366,0-3.318.2-4.293-.591-.781-.394-1.171-1.379-1.561-1.774-6.243-7.093-6.634-7.487-11.9-7.487h-1.17v6.7H44.483V27.963c-2.928,0-6.049.394-8.585-3.152H30.631c-2.341.787-2.341,2.166-2.341,3.349,0,.986.585,3.547,2.341,3.547h7.024v9.458H69.067c-1.561,6.7-2.731,14.582-8.39,21.478v.591h3.513c3.121.2,4.488,2.167,4.488,4.336A4.555,4.555,0,0,1,64.189,72.1H58.14v.787a3.867,3.867,0,0,1,4.293,4.139c0,1.182-1.171,2.759-1.171,3.152,0,.985,1.171,1.576,1.171,3.152,0,1.182-1.171,2.759-1.171,3.154,0,.985,1.171,1.576,1.171,3.152,0,4.926-5.463,4.532-7.414,4.532a17.476,17.476,0,0,1-4.1-.394c-.78-.2-2.146-1.38-2.536-1.38-.585,0-1.365.591-1.951.789a13.377,13.377,0,0,1-4.1.985H25.753a42.532,42.532,0,0,1-7.219-1.182C16,92.4,12.1,90.428,11.51,90.428c-.39,0-1.17.394-1.755.394a18.893,18.893,0,0,1-3.123.2c-1.755,0-5.853.394-5.853-2.955V69.342c.39-3.546,4.1-2.955,5.853-2.955a16.351,16.351,0,0,1,3.123,0c.585,0,1.365.591,1.755.591.586,0,3.123-1.577,4.488-1.971,1.756-.787,3.9-.985,5.854-1.576-5.074-6.9-10.341-14.187-11.122-21.084,0-.789-.39-2.365-.39-2.759v-6.5A26.66,26.66,0,0,1,36.288,9.637h1.366v7.093s-.2.2.39.2c.39,0,1.171-.787,1.756-.787,1.17-.394,2.926-.2,4.683-.2V3.331h6.438C51.507.375,54.629.179,56.385.179A67.518,67.518,0,0,1,63.6.77Zm.781,2.759a59.571,59.571,0,0,1,6.633,2.759c1.951.985,5.073,3.941,7.024,6.5,1.171,1.182,1.951,2.759,3.123,4.137.39.395,3.9,3.351,3.9,4.336l-.2,12.808c-2.536-1.577-4.683-4.926-6.634-5.32-2.146-.395-4.683-.592-6.829-.986-4.1-.591-11.705-6.5-11.705-10.05,0-1.774.78-2.167,2.146-2.167.78,0,1.365-.2,1.951.591A28.94,28.94,0,0,1,65.554,18.7a9.482,9.482,0,0,0,4.878,2.759,2.993,2.993,0,0,0,1.561.395h3.316V18.9H70.627a7.951,7.951,0,0,1-2.146-1.182,7.569,7.569,0,0,0-.78-2.561c-.78-2.956-4.293-6.7-7.024-7.488-.585-.2-7.219-1.576-7.219-3.546a1.409,1.409,0,0,1,.586-1.182C57.165,3.135,60.871,2.346,64.384,3.529ZM51.116,6.09c3.708,4.139,8,2.169,11.9,6.5-3.9.2-6.048,2.169-6.048,5.124,0,4.532,8.389,11.627,12.292,12.218v4.729H47.215V25.2H40c-1.951-.591-2.146-2.167-2.146-3.35,0-1.774.78-3.154,2.536-3.154h6.829V6.09ZM34.923,12.4v9.655c-4.683-.985-9.17,1.577-9.17,6.109s4.488,7.095,9.17,6.306v6.5H12.877V33.086a11.919,11.919,0,0,0,.39-2.365c1.171-8.867,11.512-17.341,17.754-17.932a9.734,9.734,0,0,0,2.341-.394Zm59.311,9.458V37.815H87.8V21.854ZM34.923,50.229h7.024a2.887,2.887,0,0,1,2.341,3.152c0,1.182-.781,3.35-2.341,3.35H34.923v6.306c-8.975,0-9.17.2-9.755.2-.39,0-1.951-2.561-3.121-3.744-3.9-4.926-7.219-9.852-8.2-15.567H34.923Zm30.826-6.306v.789c-1.17,6.7-4.1,13-9.755,19.9A21.469,21.469,0,0,0,52.287,71.9c0,.2-.2.591-.39.591a8.43,8.43,0,0,1-.976.2c-.975,0-2.926,1.774-3.121,2.956H36.288c.2-.591.391-1.774.976-1.97,1.755-.789,4.1-.789,6.048-1.182,2.731-.394,3.708-2.956,3.708-4.73a5.073,5.073,0,0,0-4.878-4.729H37.85v-3.35c4.488.787,9.17-1.774,9.17-6.306s-4.683-7.093-9.17-6.109v-3.35ZM42.727,65.993c1.756,0,1.561,1.38,1.561,1.774,0,.789.2,1.576-.781,1.774a52.327,52.327,0,0,1-8,1.576c-.2,2.562-4.293,5.517-6.829,4.532v2.562c2.146.2,2.146.2,2.926,0,.2.2.2.59.2,4.729a13.393,13.393,0,0,0,3.316,8.472H22.632a37.533,37.533,0,0,1-9.755-3.151V69.146a21.8,21.8,0,0,1,10.145-3.154Zm22.047,0c1.561.2,1.365.986,1.365,1.577a2.025,2.025,0,0,1-.78,1.772H56.58v-.591c.585-.787.975-1.772,1.755-2.759ZM9.95,69.146V88.26H3.511V69.146Zm48.58,6.306c1.561.2,1.366.985,1.366,1.576a2.024,2.024,0,0,1-.78,1.772h-8a1.628,1.628,0,0,1-.78-1.772c0-.591-.2-1.38,1.171-1.576ZM47.8,78.6c.39.591.975,1.182.975,1.576,0,.591-.585,1.182-.975,1.774H34.728V78.6Zm10.73,3.152c1.561.2,1.366.985,1.366,1.576a2.026,2.026,0,0,1-.78,1.774h-8a1.63,1.63,0,0,1-.78-1.774c0-.591-.2-1.379,1.171-1.576ZM47.8,84.909c.39.591.975,1.182.975,1.577a12.4,12.4,0,0,1-1.56,3.349c-.585.986-1.951,1.182-2.926,1.38a5.378,5.378,0,0,1-1.756.2c-3.708,0-6.634-1.97-7.8-6.5Zm10.73,3.154c1.561.2,1.366.985,1.366,1.576a2.024,2.024,0,0,1-.78,1.772h-8a1.628,1.628,0,0,1-.78-1.772c0-.591-.2-1.379,1.171-1.576Z" transform="translate(848.127 1730.821)" fill="#fda42a" fill-rule="evenodd"></path></g></svg> 