<?xml version="1.0" encoding="UTF-8"?> <svg xmlns="http://www.w3.org/2000/svg" width="72.36" height="72.36" viewBox="0 0 72.36 72.36"><path id="icon_tineos" d="M47.88,11.625a11.11,11.11,0,0,1-3.171,7.7c.755.6,1.813,1.21,2.719,1.813,1.813-2.569,5.741-3.324,7.7-3.324A10.8,10.8,0,0,1,66.008,28.544a11.654,11.654,0,0,1-3.171,7.705.148.148,0,0,0,.15.151c5.59,2.114,10.273,10.122,10.273,14.8v12.69c-.151.452-.454.906-.906.906H54.98c-.151.151-.151,0-.151.454,0,.3.3,4.079.3,4.531,0,.151.151,3.475-.906,3.475H19.783a1.41,1.41,0,0,1-.755-1.057c0-1.512.452-5.438,0-7.4H1.655c-.3-.151-.755-.454-.755-.756V51.2c.151-4.985,4.079-12.236,10.423-14.8a11.276,11.276,0,0,1-3.171-7.856A10.666,10.666,0,0,1,18.877,17.818a10.4,10.4,0,0,1,7.855,3.324,26.235,26.235,0,0,1,2.719-1.661,11.281,11.281,0,0,1-3.173-7.856,10.8,10.8,0,0,1,21.6,0Zm-2.417,0A8.346,8.346,0,0,1,37,20.085a8.217,8.217,0,0,1-8.309-8.46A8.19,8.19,0,0,1,37,3.317,8.317,8.317,0,0,1,45.463,11.625ZM27.337,28.544A8.346,8.346,0,0,1,18.877,37a8.218,8.218,0,0,1-8.309-8.46,8.19,8.19,0,0,1,8.309-8.307A8.223,8.223,0,0,1,27.337,28.544Zm36.255,0A8.346,8.346,0,0,1,55.132,37a8.218,8.218,0,0,1-8.309-8.46,8.191,8.191,0,0,1,8.309-8.307A8.316,8.316,0,0,1,63.592,28.544ZM32.624,21.6A15.467,15.467,0,0,0,37,22.653c1.509,0,5.438-1.36,5.588-1.36a21.838,21.838,0,0,1,3.324,1.662,8.663,8.663,0,0,0-1.662,5.588,10.95,10.95,0,0,0,3.173,7.705,7.887,7.887,0,0,1-1.813,1.057c-.452,0-1.208-1.207-1.813-1.661-1.812-1.663-4.833-2.267-6.8-2.267a9.875,9.875,0,0,0-2.719.3c-3.626,1.057-5.288,3.626-5.741,3.626s-1.208-.6-1.813-.906A12.007,12.007,0,0,0,29.9,28.544a12.4,12.4,0,0,0-.454-2.719c-.151-.906-1.057-2.415-1.057-2.869s2.87-1.662,3.173-1.662S32.321,21.6,32.624,21.6Zm12.84,22.659A8.345,8.345,0,0,1,37,52.715a8.385,8.385,0,1,1,8.458-8.46ZM15.25,38.817a15.394,15.394,0,0,0,3.626.756,27.538,27.538,0,0,0,5.438-1.361,13.174,13.174,0,0,1,2.87,1.21,19.9,19.9,0,0,0-1.059,4.833A10.481,10.481,0,0,0,29.3,51.96c-3.474,1.358-8.761,6.949-9.366,10.423H3.317V51.354a23.2,23.2,0,0,1,1.057-4.38A13.908,13.908,0,0,1,7.547,41.99c.3-.454,4.835-3.778,5.892-3.778C13.741,38.212,14.647,38.666,15.25,38.817Zm36.256,0a14.046,14.046,0,0,0,3.625.756c1.813,0,5.438-1.361,5.59-1.361.3,0,1.964.907,3.022,1.361,3.625,1.812,7.1,8.458,7.1,11.781V62.383H54.226c-1.057-3.625-5.59-8.912-9.366-10.273a12,12,0,0,0,3.171-7.855c0-1.511-.755-3.173-1.057-4.833a16.885,16.885,0,0,1,2.719-1.21A12.687,12.687,0,0,1,51.507,38.817ZM33.379,54.527A15.38,15.38,0,0,0,37,55.283a27.588,27.588,0,0,0,5.438-1.36,17.2,17.2,0,0,1,2.869,1.207c3.929,2.116,7.4,8.613,7.4,11.935v3.778H21.445V67.065a3.318,3.318,0,0,0,.151-1.208,16.78,16.78,0,0,1,2.87-6.647c1.057-1.662,5.59-5.287,7.1-5.287A12.651,12.651,0,0,1,33.379,54.527Z" transform="translate(-0.9 -0.9)" fill="#fff" fill-rule="evenodd"></path></svg> 