<?xml version="1.0" encoding="UTF-8"?> <svg xmlns="http://www.w3.org/2000/svg" width="150" height="150" viewBox="0 0 150 150"><g id="icon_engagement" transform="translate(-420 -1703)"><g id="Ellipse_3" data-name="Ellipse 3" transform="translate(420 1703)" fill="none" stroke="#fda42a" stroke-width="2"><circle cx="75" cy="75" r="75" stroke="none"></circle><circle cx="75" cy="75" r="74" fill="none"></circle></g><path id="Tracé_13" data-name="Tracé 13" d="M68.368,21.94c0,11.513-9.771,21.541-21.385,21.541A22.268,22.268,0,0,1,26.334,27.14c-.184-1.113-.553-2.972-.553-3.343V20.083A21.563,21.563,0,0,1,46.983.4,21.6,21.6,0,0,1,68.368,21.94Zm-2.213-.185A18.843,18.843,0,0,1,47.167,41.067c-7.005,0-14.932-3.343-18.251-12.813a21.115,21.115,0,0,1-.923-4.457V20.083c1.475-11.7,10.141-17.27,18.99-17.27C57.675,2.813,66.156,10.8,66.156,21.755Zm-3.318.185A16.153,16.153,0,0,1,46.983,37.911c-8.666,0-15.671-7.614-15.671-15.971,0-7.985,6.637-15.969,15.486-15.969A16.188,16.188,0,0,1,62.838,21.94Zm-2.213,0A13.381,13.381,0,0,1,46.983,35.5,13.237,13.237,0,0,1,33.525,21.94,13.128,13.128,0,0,1,46.983,8.384,13.279,13.279,0,0,1,60.625,21.94ZM21.356,13.4c.185,0,.369.371.369.742a1.464,1.464,0,0,1-.921,1.115c-.554,0-4.425-2.6-6.268-3.714a.827.827,0,0,1-.554-.744A.864.864,0,0,1,14.9,9.87C15.457,9.87,19.329,12.284,21.356,13.4Zm58.811-2.6c0,.93-6.822,4.457-6.822,4.457a1.038,1.038,0,0,1-.921-1.115c0-.742,6.083-4.271,6.637-4.271A1.04,1.04,0,0,1,80.168,10.8Zm-24.7,5.943c0,.556-6.822,7.427-8.666,9.841-.553.557-1.475,1.486-1.844,1.486-1.105,0-6.268-6.684-6.268-6.871a1.19,1.19,0,0,1,.923-.928c.553,0,3.687,3.528,5.345,5.014l9.4-9.47C54.91,16,55.464,16.369,55.464,16.742Zm-36.687,5.2c0,1.486-4.425,1.115-4.794,1.115-.553,0-4.793.371-4.793-1.115s4.24-1.113,4.793-1.113C14.9,20.827,18.776,20.456,18.776,21.94Zm66.184,0c0,1.486-4.424,1.115-4.793,1.115-1.106,0-4.794.371-4.794-1.115s3.688-1.113,4.794-1.113C80.536,20.827,84.96,20.456,84.96,21.94ZM21.725,29.554c0,1.115-6.637,4.456-6.82,4.456a.963.963,0,0,1-.923-.928c0-.742,6.453-4.456,6.637-4.456A1.2,1.2,0,0,1,21.725,29.554Zm57.889,2.6c.185,0,.554.371.554.928,0,.744-.738.928-1.106.928s-4.425-2.6-6.268-3.714c-.185,0-.369-.185-.369-.742a.863.863,0,0,1,.921-.928C73.715,28.626,77.586,31.04,79.614,32.154ZM22.831,44.968a1.022,1.022,0,0,1,.554.927c0,.557-.923,2.229-.923,2.787,0,.371,6.084,4.085,6.453,4.085.553,0,5.748-1.858,7.19-1.858,3.5,0,5.714,2.787,6.637,2.787.369,0,3.5-3.343,7.374-3.343l13.642,2.414c1.475-.557,7.928-3.343,7.928-4.085,0-.372-.923-2.229-.923-2.787,0-1.485,9.587-4.456,12.168-4.827.184.185.369.371.369.557,3.687,9.1,10.508,27.111,10.508,27.484,0,.556-.185.742-.369.742-3.5,1.671-10.508,4.827-10.877,4.827-1.291,0-1.475-2.785-2.028-2.785s-5.532,2.6-8.3,4.086c1.106,2.97-3.134,6.871-5.715,5.942-.553,2.785-4.055,5.014-6.268,4.085-.184,1.115-2.028,4.085-3.872,4.271a10.383,10.383,0,0,1-2.4,0c-.923,2.6-2.765,4.27-4.794,4.27-2.58,0-4.055-2.6-5.162-2.6-.553,0-2.581,2.972-4.793,2.972a4.887,4.887,0,0,1-3.319-2.043c-.369-.556-.369-1.3-.738-1.857-.738-.557-3.134-.557-3.872-2.413a7.615,7.615,0,0,0-.553-1.486c-1.291,0-4.425-1.858-4.425-4.271-2.765-.186-4.24-2.043-4.24-4.085,0-.371.738-1.857.738-2.414s-7.005-4.457-9.033-5.2c-.369.371-1.106,3.528-2.213,3.528a4.96,4.96,0,0,1-2.028-.927c-.185,0-9.218-3.343-9.218-4.642A25.015,25.015,0,0,1,2,64.28C4.949,56.666,7.53,48.5,11.217,41.067A85.132,85.132,0,0,1,22.831,44.968Zm-10.139-1.3c.738.186,1.475.557,2.213.744L10.3,57.78c.184.371.738,1.115,1.29,1.115a1.226,1.226,0,0,0,.921-.744c1.66-4.271,3.135-8.541,4.609-12.813,1.106.371,2.4.742,3.688,1.3v.371c-.738,1.857-1.475,3.714-2.213,5.385-.738,2.043-1.844,4.642-2.765,7.058-1.659,3.9-3.134,8.355-4.978,12.255a.181.181,0,0,1-.184.185L2.921,68.736v-.742l9.217-24.327Zm71.162,5.2c2.4,6.5,7.374,18.941,7.374,19.313,0,.742-5.9,3.157-8.112,3.713-3.318-8.355-9.771-24.512-9.771-25.069,0-.928,2.581-1.3,3.134-1.485h.553C78.139,48.5,80.905,58.9,82.564,58.9c.369,0,.921-.557,1.29-1.115L79.245,44.41a17,17,0,0,1,2.4-.744C82.2,43.667,83.67,48.124,83.854,48.867ZM28.916,54.995c.369,0,5.748-1.857,7.19-1.857.921,0,4.424.742,4.424,1.857,0,1.3-9.033,4.829-9.033,9.1,0,3.158,3.134,4.642,5.162,4.642,2.95,0,8.112-4.642,9.218-4.642.369,0,1.475,2.043,2.581,2.972a8.151,8.151,0,0,0,5.9,2.414c.553,0,4.424-.928,4.793-.928.554,0,6.822,4.456,10.139,7.056.923.744.738,1.115.738,1.857a2.191,2.191,0,0,1-2.211,2.414c-2.029,0-4.978-4.085-6.084-4.085a1.626,1.626,0,0,0-1.106,1.3c0,.928,3.5,2.228,3.5,4.457a2.323,2.323,0,0,1-2.4,2.414c-1.844,0-4.24-2.787-4.978-2.787a1.669,1.669,0,0,0-1.106,1.115c0,1.672,2.213.928,2.213,3.528a2.323,2.323,0,0,1-2.4,2.414c-1.844,0-4.056-2.972-4.609-2.972a1.622,1.622,0,0,0-1.291,1.115c0,.744,2.029,1.857,2.029,3.343a2.378,2.378,0,0,1-2.4,2.6c-.553,0-3.318-1.3-3.318-2.229,0-.557.553-1.857.553-2.228a4.3,4.3,0,0,0-2.211-3.714c-.738-.371-1.475-.371-2.213-.742-.185-1.857-2.765-4.086-4.425-3.9,0-.742-1.29-3.157-2.58-3.528a5.4,5.4,0,0,1-1.844-.557c-.185-2.228-2.765-3.714-4.24-3.714-1.844,0-2.4,1.3-4.609,2.785L14.72,68.922l7.005-17.828C24.122,52.394,28.363,54.995,28.916,54.995Zm43.693-3.714,7.005,18.2c0,.185,0,.371-.184.371a85.387,85.387,0,0,1-8.3,4.085L59.519,65.951a28.732,28.732,0,0,1-5.162,1.115c-5.715,0-6.637-5.943-7.743-5.943-.738,0-7.743,5.2-9.772,5.2-1.474,0-2.949-.742-2.949-2.228,0-2.042,5.347-5.2,5.9-5.571,2.4-1.671,4.793-3.9,7.374-5.385a5.27,5.27,0,0,1,2.95-.557l13.827,2.414c2.58-1.115,5.345-2.414,8.112-3.714ZM30.759,75.793c0,1.3-3.872,4.827-4.794,4.827-1.29,0-1.659-.928-1.659-1.856,0-1.3,3.687-4.642,4.609-4.642A1.7,1.7,0,0,1,30.759,75.793Zm4.424,4.085c0,1.486-3.872,4.829-4.793,4.829-1.291,0-1.66-.928-1.66-1.857v-.742a21.588,21.588,0,0,1,3.5-3.714c.184-.372.736-.186,1.105-.186A1.7,1.7,0,0,1,35.184,79.878Zm4.425,3.9c0,.556,0,.742-.185.928-1.106,1.113-3.318,3.9-4.424,3.9a1.855,1.855,0,0,1-1.844-1.858c0-1.3,3.134-4.456,3.872-4.641h.738C39.424,82.107,39.609,82.85,39.609,83.778Zm4.424,4.085c0,1.671-3.5,4.271-3.5,4.271a2.6,2.6,0,0,1-1.106.371,1.651,1.651,0,0,1-1.844-1.857c0-1.486,3.319-4.271,3.5-4.271.185-.185.738-.185,1.106-.185C43.664,86.192,44.033,86.935,44.033,87.863Z" transform="translate(447.66 1730.6)" fill="#fda42a" fill-rule="evenodd"></path></g></svg> 