<?xml version="1.0" encoding="UTF-8"?> <svg xmlns="http://www.w3.org/2000/svg" width="62.447" height="63.238" viewBox="0 0 62.447 63.238"><path id="icon_cds" d="M48.342,13.8c.248,1,.745,2.756.745,3.131v2.756a7.6,7.6,0,0,1,3.474,6.135,7.161,7.161,0,0,1-4.839,6.512,4.687,4.687,0,0,1-1.241.377H43.875c-.993,1.377-1.738,3.256-3.227,4.884-1.117,1-3.226,2.254-3.226,2.63v2.63A8.7,8.7,0,0,0,39.779,44.1h5.46c10.053.626,17.5,10.269,17.5,18.282,0,.251.248,1.754-.87,1.754h-24.7a1.864,1.864,0,0,1-.745-.877.8.8,0,0,1,.745-.751H61a.926.926,0,0,0,.248-.751c0-7.639-8.315-16.4-16.878-16.154a14.793,14.793,0,0,0-.621,1.377c-1.117,2-5.584,8.89-6.329,8.89-.5,0-5.337-5.384-5.957-5.384s-5.337,5.384-5.957,5.384c-.745,0-3.227-4.257-3.6-4.758-.993-1.754-2.854-3.506-3.1-5.26a.388.388,0,0,0-.124-.249C9.871,45.354,1.8,54.12,1.8,61.759a.926.926,0,0,0,.248.751h23.7c.5.251.868.625.868.751a1.06,1.06,0,0,1-.868.877H1.06c-.248-.125-.745-.375-.745-.627V61.258A14.29,14.29,0,0,0,.687,59c.62-5.008,7.073-12.52,12.41-13.9a19.132,19.132,0,0,0,2.11-.625c.745-.126,2.11-.377,2.483-.377h5.46c.745-.375,1.861-.5,2.481-1.377V40.094a36.515,36.515,0,0,1-4.219-3.63c-.993-1.128-1.49-2.882-2.234-3.757h-2.73a7.305,7.305,0,0,1-5.957-6.888,7.3,7.3,0,0,1,3.474-6.135V16.928A17.877,17.877,0,0,1,31.465.9,17.94,17.94,0,0,1,48.342,13.8ZM35.56,3.028c4.716.752,10.673,7.013,11.417,11.646.124.752.5,1.879.5,2.254v1.879H44.495A13.449,13.449,0,0,0,31.465,5.784,13.344,13.344,0,0,0,18.558,18.807H15.58V16.928C16.945,6.785,24.515,2.653,31.465,2.653A24.954,24.954,0,0,1,35.56,3.028Zm7.2,15.9c0,.751.124,1.376-.621,1.376-3.226,0-7.2-3.255-7.57-3.255-.248,0-2.234,1.377-3.227,1.879a14.838,14.838,0,0,1-6.7,1.5,9.634,9.634,0,0,1-4.22-.626,2.793,2.793,0,0,1-.124-1A10.987,10.987,0,0,1,31.465,7.662,11.047,11.047,0,0,1,42.758,18.933Zm-4.469,2a18.309,18.309,0,0,0,4.469,1.252v7.387a20.332,20.332,0,0,1-.621,2.631H35.684c-1.241-2.38-2.606-2.5-4.1-2.5-1.985,0-4.219,1.126-4.219,3.381,0,2.63,2.483,3.506,4.219,3.506a4.059,4.059,0,0,0,4.1-2.5H40.9c0,.126.125,0,.125.375A7.654,7.654,0,0,1,39.9,36.087a11.782,11.782,0,0,1-8.438,3.757,11.3,11.3,0,0,1-10.673-7.638,13.672,13.672,0,0,1-.5-2.38V21.812c1.985.251,3.971.377,4.344.377,5.46,0,9.555-3.006,9.928-3.006S37.918,20.81,38.29,20.936ZM18.558,20.81V30.828c-.248.251-.993.251-1.117.251a5.073,5.073,0,0,1-5.337-5.26,5.073,5.073,0,0,1,5.337-5.259C17.813,20.559,18.186,20.435,18.558,20.81Zm32.391,5.008c0,2.631-2.234,5.26-4.592,5.26H44.495V20.81c.248-.375.745-.251,1.118-.251A5.143,5.143,0,0,1,50.948,25.818ZM34.071,33.082c0,1.628-1.49,1.754-2.483,1.754-1.365,0-2.481-.252-2.481-1.754,0-1.754,1.49-1.628,2.481-1.628S34.071,31.328,34.071,33.082ZM31.465,41.6c.372,0,3.6-.626,3.847-.626.372,0,.372.126.5.126v2.63c-.373.251-3.724,4.007-4.344,4.007s-3.971-3.756-4.219-4.007V41.1c.124,0,.124-.126.372-.126C27.989,40.971,31.216,41.6,31.465,41.6Zm-1.613,7.138c.124.126.248.126.248.5a35.933,35.933,0,0,1-3.972,4.133c-.124.125-.124.125-.372.125-.87,0-2.854-3.631-2.979-3.757a11.754,11.754,0,0,0-1.488-2.253V46.73a36.119,36.119,0,0,1,4.343-1.877C26.376,44.853,29.851,48.61,29.851,48.735Zm11.789-2.128c.125.124.125.124.125.375,0,.751-3.476,5.51-4.22,6.387,0,.125,0,.125-.248.125-.5,0-4.343-4.007-4.343-4.383,0-.625,3.474-4.131,3.971-4.257H37.3A33.792,33.792,0,0,1,41.641,46.607ZM32.209,63.261a.8.8,0,0,1-.745.752c-.5,0-.621-.5-.621-.752,0-.626.373-.626.621-.626A.7.7,0,0,1,32.209,63.261Z" transform="translate(-0.315 -0.9)" fill="#fff" fill-rule="evenodd"></path></svg> 