<?xml version="1.0" encoding="UTF-8"?> <svg xmlns="http://www.w3.org/2000/svg" width="75.432" height="42.367" viewBox="0 0 75.432 42.367"><path id="icon_mascotte" d="M23.011,2.551a20.637,20.637,0,0,1,10.628,3.03c.341.191.746.418,1,.533.206-.126.5-.327.739-.486a13.259,13.259,0,0,1,2.7-1.532,20.245,20.245,0,0,1,8.134-1.545A20.679,20.679,0,0,1,56.734,5.383a21.451,21.451,0,0,1,8.774,10.46,19.2,19.2,0,0,1,1.546,5.587v9.426a1.893,1.893,0,0,0,.862,1.226,3.154,3.154,0,0,0,1.489.681,4.589,4.589,0,0,0,2.113-1.808v-6.1l.063-.189a2.941,2.941,0,0,1,2.608-1.813,2.764,2.764,0,0,1,2.665,1.464l.244.328v6.066l-.015.1a12.836,12.836,0,0,1-4.044,7.707,10.528,10.528,0,0,1-6.98,2.76,12.889,12.889,0,0,1-6.71-2.041,9.543,9.543,0,0,1-2.792-2.689,7.648,7.648,0,0,1-1.3-3.94V32.6a10.305,10.305,0,0,0-1.928-6.206,4.777,4.777,0,0,0-3.774-1.79,5.316,5.316,0,0,0-5.46,5.532v6.684l-.04.153a11.707,11.707,0,0,1-2.841,5.555A6.62,6.62,0,0,1,36.4,44.418a9.127,9.127,0,0,1-4.826-1.668,5.8,5.8,0,0,1-2.866-4.643V33.133a5.258,5.258,0,0,0-2.24-3.059,6.736,6.736,0,0,0-3.46-1.366c-2.054,0-5.462,2.211-5.462,4.565v4.465l-.021.112a7.945,7.945,0,0,1-7.672,6.568,7.644,7.644,0,0,1-5.451-2.33A7.5,7.5,0,0,1,2.166,36.9l0-13.848A21.613,21.613,0,0,1,9.06,7.824,20.752,20.752,0,0,1,23.011,2.551Zm11.719,6.1a5.092,5.092,0,0,1-2.3-.911,18.137,18.137,0,0,0-9.421-2.714c-8.344,0-17.648,5.675-18.375,18.136V36.9a5.34,5.34,0,0,0,5.221,5.048,5.513,5.513,0,0,0,5.222-4.441V33.273a6.578,6.578,0,0,1,2.834-5.049,8.855,8.855,0,0,1,5.1-1.986,9.069,9.069,0,0,1,4.91,1.836,7.507,7.507,0,0,1,3.246,4.772l.014.092v5.17c0,1.98,3.258,3.84,5.222,3.84,1.753,0,3.925-.624,5.222-5.451V30.131a8.027,8.027,0,0,1,2.27-5.7,7.879,7.879,0,0,1,5.661-2.3A7.271,7.271,0,0,1,55.23,24.81a12.685,12.685,0,0,1,2.5,7.685,5.949,5.949,0,0,0,2.964,4.667,10.455,10.455,0,0,0,5.368,1.644c3.586,0,7.667-2.847,8.569-8.289V25.482a1.687,1.687,0,0,0-.144-.153c-.058,0-.152,0-.241,0a.986.986,0,0,0-.254.1v6.287l-.2.309c-1.054,1.6-2.818,3.213-4.38,3.213a5.353,5.353,0,0,1-2.994-1.192,4.125,4.125,0,0,1-1.828-3.185V21.43A18.432,18.432,0,0,0,63.277,16.9l-.032-.069C58.763,6.172,49.838,5.021,46.209,5.021a17.447,17.447,0,0,0-7.1,1.317l-.079.04-.084.028a11.19,11.19,0,0,0-2.19,1.267C35.834,8.3,35.323,8.646,34.73,8.646Zm21.283,5.265a2.679,2.679,0,0,1,2.91,2.685,2.857,2.857,0,0,1-2.91,2.926A2.629,2.629,0,0,1,53.344,16.6,2.484,2.484,0,0,1,56.013,13.912Zm0,3.141a.4.4,0,0,0,.44-.456c0-.091,0-.215-.44-.215a1.255,1.255,0,0,0-.184.011,1.183,1.183,0,0,0-.015.2,1.09,1.09,0,0,0,.07.444A.576.576,0,0,0,56.013,17.052Z" transform="translate(-1.916 -2.301)" fill="#fff" stroke="#fda42a" stroke-width="0.5"></path></svg> 