<svg xmlns="http://www.w3.org/2000/svg" xmlns:xlink="http://www.w3.org/1999/xlink" width="55" height="55" viewBox="0 0 55 55">
  <defs>
    <clipPath id="clip-path">
      <rect id="Rectangle_94" data-name="Rectangle 94" width="37.445" height="37.445" fill="#fdae30"/>
    </clipPath>
  </defs>
  <g id="Groupe_137" data-name="Groupe 137" transform="translate(876.129 -64.871)">
    <circle id="Ellipse_18" data-name="Ellipse 18" cx="27.5" cy="27.5" r="27.5" transform="translate(-876.129 64.871)" fill="#fff"/>
    <g id="Groupe_136" data-name="Groupe 136" transform="translate(-867.352 73.648)">
      <g id="Groupe_135" data-name="Groupe 135" clip-path="url(#clip-path)">
        <path id="Tracé_82" data-name="Tracé 82" d="M29.534.006a.626.626,0,0,0-.625.3l-.648,1.069a.625.625,0,0,0,1.069.647L29.978.948A.624.624,0,0,0,29.767.09a.629.629,0,0,0-.233-.084m-11.417,1.2A18.076,18.076,0,0,0,4.6,31.337C3.864,33.852.94,35.653.94,35.653a.625.625,0,0,0,.31,1.168h.625a15.92,15.92,0,0,0,7.845-1.481,18.1,18.1,0,1,0,8.4-34.129m14.122.843a.621.621,0,0,0-.425.217L31,3.223a.625.625,0,0,0,.951.81l.81-.952a.624.624,0,0,0-.526-1.027M18.117,2.46a16.868,16.868,0,1,1-8.112,31.659.624.624,0,0,0-.608,0A12.379,12.379,0,0,1,3.224,35.5a7.66,7.66,0,0,0,2.7-4.118.625.625,0,0,0-.151-.565A16.863,16.863,0,0,1,18.117,2.46m16.7,2.073a.624.624,0,0,0-.455.148l-.952.81a.624.624,0,1,0,.81.95l.952-.81a.626.626,0,0,0-.355-1.1M18.18,4.959a14.368,14.368,0,0,0-2.49,28.529,14.19,14.19,0,0,0,6.478-.379,2.186,2.186,0,1,0-1.233-4.2h0a9.845,9.845,0,0,1-4.5.266A9.994,9.994,0,0,1,18.7,9.349a9.75,9.75,0,0,1,5.093,1.943,2.057,2.057,0,0,0-1.378.821A8.094,8.094,0,0,0,17.8,10.582a8.611,8.611,0,0,0-8.434,8.746A8.611,8.611,0,0,0,17.8,28.074a8.054,8.054,0,0,0,4.386-1.4,4.016,4.016,0,0,0,3.736,2.649,5.211,5.211,0,0,0,4.416-2.448h0A14.367,14.367,0,0,0,18.949,4.982q-.386-.022-.77-.023m0,1.251c.234,0,.469.007.7.021a13.116,13.116,0,0,1,10.4,19.986,3.981,3.981,0,0,1-3.354,1.857,2.81,2.81,0,0,1-2.776-2.391.625.625,0,0,0-1.007-.4A6.935,6.935,0,0,1,17.8,26.825a7.347,7.347,0,0,1-7.184-7.5,7.347,7.347,0,0,1,7.184-7.5A6.938,6.938,0,0,1,22.182,13.4a.625.625,0,0,0,.986-.293.933.933,0,0,1,1.822.288v11.87a.944.944,0,0,0,.937.937,2.058,2.058,0,0,0,1.758-.969A11.244,11.244,0,1,0,6.894,20.066a11.335,11.335,0,0,0,9.329,10.343,11.121,11.121,0,0,0,5.066-.3h0a.925.925,0,0,1,1.161.634h0a.925.925,0,0,1-.634,1.162,13.086,13.086,0,0,1-3.7.539,12.933,12.933,0,0,1-2.215-.192A13.117,13.117,0,0,1,18.175,6.21M36.731,7.382a.618.618,0,0,0-.233.084l-1.069.647a.624.624,0,1,0,.645,1.069l1.069-.647a.625.625,0,0,0-.412-1.153M17.8,13.705a5.486,5.486,0,0,0-5.31,5.623A5.486,5.486,0,0,0,17.8,24.95a5.486,5.486,0,0,0,5.31-5.623,5.486,5.486,0,0,0-5.31-5.623m8.434.065a9.683,9.683,0,0,1,1.834,4.669,9.93,9.93,0,0,1-1.451,6.134v0c-.074.122-.245.14-.382.206ZM17.8,14.955a4.224,4.224,0,0,1,4.061,4.373A4.224,4.224,0,0,1,17.8,23.7a4.224,4.224,0,0,1-4.061-4.373A4.224,4.224,0,0,1,17.8,14.955" transform="translate(0 0)" fill="#fdae30"/>
      </g>
    </g>
  </g>
</svg>
