<svg xmlns="http://www.w3.org/2000/svg" width="30" height="30" viewBox="0 0 30 30">
  <g id="icon_accessibilite" transform="translate(-331 122)">
    <g id="Rectangle_68" data-name="Rectangle 68" transform="translate(331 -122)" fill="none" stroke="#fff" stroke-width="1">
      <rect width="30" height="30" rx="5" stroke="none"/>
      <rect x="0.5" y="0.5" width="29" height="29" rx="4.5" fill="none"/>
    </g>
    <path id="Icon_awesome-low-vision" data-name="Icon awesome-low-vision" d="M22.385,9.107A12.815,12.815,0,0,0,11.323,2.831a12.977,12.977,0,0,0-3.242.409L6.007.4A.944.944,0,0,0,4.693.171L4.177.532a.944.944,0,0,0-.232,1.314l1.7,2.3A12.769,12.769,0,0,0,.263,9.105v0a1.887,1.887,0,0,0,0,1.916,12.774,12.774,0,0,0,6.8,5.557L2.175,9.605A10.7,10.7,0,0,1,3.287,8.193L7.982,14.9h0l1.6,2.282a12.977,12.977,0,0,0,3.1.046L5.214,6.557a10.916,10.916,0,0,1,1.525-.848l9.9,14.018a.944.944,0,0,0,1.314.232l.516-.361a.944.944,0,0,0,.232-1.314l-1.7-2.3h0a12.752,12.752,0,0,0,5.379-4.966,1.885,1.885,0,0,0,0-1.916ZM15.335,13.6l-.75-1.071a4.088,4.088,0,0,0,.346-4.391h0a1.684,1.684,0,1,1-1.684-1.684h0a4.1,4.1,0,0,0-3.126-.3l-.75-1.071A5.348,5.348,0,0,1,15.335,13.6Z" transform="translate(334.677 -117.065)" fill="#fff"/>
  </g>
</svg>
