<?xml version="1.0" encoding="utf-8"?>
<!-- Generator: $$$/GeneralStr/196=Adobe Illustrator 27.6.0, SVG Export Plug-In . SVG Version: 6.00 Build 0)  -->
<svg version="1.1" id="Calque_1" xmlns="http://www.w3.org/2000/svg" xmlns:xlink="http://www.w3.org/1999/xlink" x="0px" y="0px"
	 viewBox="0 0 270 64" style="enable-background:new 0 0 270 64;" xml:space="preserve">
<style type="text/css">
	.st0{fill:none;stroke:#FFFFFF;stroke-miterlimit:10;}
	.st1{fill:#F5A12F;}
	.st2{fill:#FFFFFF;}
</style>
<g>
	<line class="st0" x1="68.2" y1="58.9" x2="0.3" y2="58.9"/>
	<g>
		<path class="st1" d="M268.8,27.1c-0.6,0-1.1,0.5-1.1,1.1l0,0v3.3c0,1.2-1,2.3-2.3,2.3l0,0c-1.2,0-2.3-1-2.3-2.3l0,0v-4.6
			c0-7.5-6.1-13.5-13.5-13.5c-2.8,0-5.6,0.9-7.9,2.5c-2.3-1.7-5-2.6-7.9-2.5c-7.5,0-13.5,6.1-13.5,13.5v8.9c0,2.5,2,4.5,4.5,4.5
			c2.5,0,4.5-2,4.5-4.5v-1.5c0-2.5,2-4.5,4.5-4.5c2.5,0,4.5,2,4.5,4.5v1.5c0,2.5,2,4.5,4.5,4.5c2.5,0,4.5-2,4.5-4.5v-4.4
			c0-2.5,2-4.5,4.5-4.5c2.5,0,4.5,2,4.5,4.5l0,0v0c0,3.7,3,6.8,6.8,6.8l0,0c3.7,0,6.8-3,6.8-6.8c0,0,0,0,0,0v-3.2
			C269.9,27.6,269.4,27.1,268.8,27.1z M256.4,23.4c-0.6,0-1.2-0.5-1.2-1.1l0,0c0-0.6,0.5-1.1,1.1-1.2l0,0c0.6,0,1.1,0.5,1.2,1.1l0,0
			C257.6,22.9,257.1,23.4,256.4,23.4L256.4,23.4z"/>
		<g>
			<path class="st1" d="M25.4,24.6v15.8h-7.3V37c-1.4,2.5-4.2,3.9-8.1,3.9c-6.3,0-10-3.6-10-8.4c0-4.9,3.3-8.3,11.5-8.3h6.2
				c0-3.4-2-5.4-6.2-5.4c-2.8,0-5.8,1-7.7,2.6L1,15.7c2.9-2.2,7.3-3.3,11.5-3.3C20.7,12.4,25.4,16.3,25.4,24.6z M17.6,31.7v-2.8
				h-5.3c-3.6,0-4.8,1.4-4.8,3.2c0,2,1.6,3.3,4.4,3.3C14.5,35.4,16.7,34.2,17.6,31.7z"/>
			<path class="st1" d="M49.6,39.1c-1.6,1.2-3.9,1.7-6.3,1.7c-6.3,0-10-3.3-10-9.9V19.6h-4.1v-6.2h4.1V6.7h7.7v6.7h6.7v6.2h-6.7
				v11.2c0,2.4,1.2,3.6,3.3,3.6c1.1,0,2.3-0.4,3.1-1L49.6,39.1z"/>
			<path class="st1" d="M70.6,39.1c-1.6,1.2-3.9,1.7-6.3,1.7c-6.3,0-10-3.3-10-9.9V19.6h-4.1v-6.2h4.1V6.7h7.7v6.7h6.7v6.2h-6.7
				v11.2c0,2.4,1.2,3.6,3.3,3.6c1.1,0,2.3-0.4,3.1-1L70.6,39.1z"/>
			<path class="st1" d="M74,4.5C74,2,76,0,78.9,0s4.8,1.8,4.8,4.3c0,2.7-1.9,4.6-4.8,4.6S74,7,74,4.5z M75,12.8h7.7v27.6H75V12.8z"
				/>
		</g>
		<g>
			<path class="st2" d="M115.9,24.7v15.7h-4.8V25.3c0-5.3-2.6-8-7.1-8c-5.1,0-8.3,3.1-8.3,9v14h-4.8V13.2h4.6v4.1
				c1.9-2.8,5.3-4.4,9.5-4.4C111.3,12.9,115.9,16.7,115.9,24.7z"/>
			<path class="st2" d="M148.5,28.4h-21.4c0.6,4.8,4.3,8,9.5,8c3.1,0,5.7-1.1,7.6-3.3l2.6,3.2c-2.4,2.9-6,4.4-10.4,4.4
				c-8.5,0-14.2-5.8-14.2-13.9c0-8.1,5.6-13.9,13.2-13.9s13,5.6,13,14C148.6,27.4,148.6,28,148.5,28.4z M127.2,24.9h16.9
				c-0.5-4.6-3.8-7.8-8.4-7.8C131.1,17.1,127.7,20.3,127.2,24.9z"/>
			<path class="st2" d="M152.8,26.8c0-8.1,5.8-13.9,13.7-13.9c7.9,0,13.7,5.7,13.7,13.9s-5.8,13.9-13.7,13.9
				C158.6,40.7,152.8,34.9,152.8,26.8z M175.4,26.8c0-5.8-3.8-9.5-8.8-9.5c-5.1,0-8.9,3.7-8.9,9.5s3.8,9.6,8.9,9.6
				C171.6,36.4,175.4,32.6,175.4,26.8z"/>
			<path class="st2" d="M183.5,37.5l2-3.9c2.2,1.6,5.8,2.8,9.2,2.8c4.4,0,6.3-1.4,6.3-3.7c0-6.1-16.6-0.8-16.6-11.7
				c0-4.9,4.2-8.2,11-8.2c3.4,0,7.3,0.9,9.6,2.5l-2,3.9c-2.4-1.6-5-2.2-7.6-2.2c-4.2,0-6.2,1.6-6.2,3.7c0,6.4,16.7,1.2,16.7,11.8
				c0,4.9-4.4,8.1-11.4,8.1C190,40.7,185.6,39.3,183.5,37.5z"/>
		</g>
	</g>
	<g>
		<path class="st2" d="M82.5,53.2h1.9v10.2h-1.9V53.2z"/>
		<path class="st2" d="M99.2,53.2v10.2h-1.6L92,56.5v6.9h-1.9V53.2h1.6l5.6,6.9v-6.9H99.2z"/>
		<path class="st2" d="M106.8,54.8v3.1h4.9v1.6h-4.9v3.9h-1.9V53.2h7.5v1.6H106.8z"/>
		<path class="st2" d="M123.8,63.4l-2.1-3c-0.1,0-0.3,0-0.4,0H119v3h-1.9V53.2h4.2c2.7,0,4.4,1.4,4.4,3.6c0,1.5-0.8,2.7-2.2,3.2
			l2.4,3.4H123.8z M121.2,54.8H119v4.1h2.2c1.7,0,2.5-0.8,2.5-2C123.7,55.5,122.9,54.8,121.2,54.8z"/>
		<path class="st2" d="M137.3,61h-5.1l-1,2.4h-2l4.6-10.2h1.9l4.6,10.2h-2L137.3,61z M136.7,59.6l-1.9-4.5l-1.9,4.5H136.7z"/>
		<path class="st2" d="M143.7,62.3l0.7-1.5c0.8,0.7,2.1,1.1,3.4,1.1c1.6,0,2.3-0.6,2.3-1.3c0-2.2-6.1-0.8-6.1-4.6
			c0-1.7,1.3-3.1,4.1-3.1c1.2,0,2.5,0.3,3.4,0.9l-0.6,1.5c-0.9-0.5-1.9-0.8-2.8-0.8c-1.6,0-2.2,0.6-2.2,1.4c0,2.2,6.1,0.8,6.1,4.5
			c0,1.6-1.3,3-4.1,3C146.1,63.6,144.5,63.1,143.7,62.3z"/>
		<path class="st2" d="M158.6,54.8h-3.4v-1.6h8.7v1.6h-3.4v8.6h-1.9V54.8z"/>
		<path class="st2" d="M174.9,63.4l-2.1-3c-0.1,0-0.3,0-0.4,0h-2.3v3h-1.9V53.2h4.2c2.7,0,4.4,1.4,4.4,3.6c0,1.5-0.8,2.7-2.2,3.2
			l2.4,3.4H174.9z M172.4,54.8h-2.2v4.1h2.2c1.7,0,2.5-0.8,2.5-2C174.9,55.5,174,54.8,172.4,54.8z"/>
		<path class="st2" d="M181.8,59v-5.8h1.9v5.7c0,2.1,0.9,3,2.6,3c1.7,0,2.6-0.9,2.6-3v-5.7h1.9V59c0,3-1.7,4.6-4.5,4.6
			C183.4,63.6,181.8,61.9,181.8,59z"/>
		<path class="st2" d="M195.6,58.3c0-3.1,2.3-5.3,5.5-5.3c1.7,0,3.1,0.6,4,1.7l-1.2,1.2c-0.7-0.8-1.7-1.2-2.7-1.2
			c-2.1,0-3.7,1.5-3.7,3.6c0,2.1,1.5,3.6,3.7,3.6c1.1,0,2-0.4,2.7-1.2l1.2,1.2c-0.9,1.1-2.4,1.7-4.1,1.7
			C197.9,63.6,195.6,61.4,195.6,58.3z"/>
		<path class="st2" d="M211.8,54.8h-3.4v-1.6h8.7v1.6h-3.4v8.6h-1.9V54.8z"/>
		<path class="st2" d="M221.2,59v-5.8h1.9v5.7c0,2.1,0.9,3,2.6,3c1.7,0,2.6-0.9,2.6-3v-5.7h1.9V59c0,3-1.7,4.6-4.5,4.6
			C222.9,63.6,221.2,61.9,221.2,59z"/>
		<path class="st2" d="M242.4,63.4l-2.1-3c-0.1,0-0.3,0-0.4,0h-2.3v3h-1.9V53.2h4.2c2.7,0,4.4,1.4,4.4,3.6c0,1.5-0.8,2.7-2.2,3.2
			l2.4,3.4H242.4z M239.8,54.8h-2.2v4.1h2.2c1.7,0,2.5-0.8,2.5-2C242.4,55.5,241.5,54.8,239.8,54.8z"/>
		<path class="st2" d="M257,61.8v1.6h-7.7V53.2h7.5v1.6h-5.6v2.7h4.9V59h-4.9v2.8H257z"/>
		<path class="st2" d="M261.2,62.3l0.7-1.5c0.8,0.7,2.1,1.1,3.4,1.1c1.6,0,2.3-0.6,2.3-1.3c0-2.2-6.1-0.8-6.1-4.6
			c0-1.7,1.3-3.1,4.1-3.1c1.2,0,2.5,0.3,3.4,0.9l-0.6,1.5c-0.9-0.5-1.9-0.8-2.8-0.8c-1.6,0-2.2,0.6-2.2,1.4c0,2.2,6.1,0.8,6.1,4.5
			c0,1.6-1.3,3-4.1,3C263.6,63.6,262,63.1,261.2,62.3z"/>
	</g>
</g>
</svg>
